<mxfile host="app.diagrams.net" agent="Mozilla/5.0 (Macintosh; Intel Mac OS X 10.15; rv:131.0) Gecko/20100101 Firefox/131.0" version="24.8.3">
  <diagram name="Page-1" id="FqSng5cqO2YFpghJVZw0">
    <mxGraphModel dx="1026" dy="624" grid="1" gridSize="10" guides="1" tooltips="1" connect="1" arrows="1" fold="1" page="1" pageScale="1" pageWidth="827" pageHeight="583" math="0" shadow="0">
      <root>
        <mxCell id="0" />
        <mxCell id="1" parent="0" />
        <mxCell id="Z1wolNKo8hvwdWCRrpzW-16" style="edgeStyle=orthogonalEdgeStyle;rounded=1;sketch=1;hachureGap=4;jiggle=2;curveFitting=1;orthogonalLoop=1;jettySize=auto;html=1;entryX=1;entryY=0.5;entryDx=0;entryDy=0;fontFamily=Architects Daughter;fontSource=https%3A%2F%2Ffonts.googleapis.com%2Fcss%3Ffamily%3DArchitects%2BDaughter;fontSize=16;strokeColor=#FF0000;startArrow=classic;startFill=1;" parent="1" source="Z1wolNKo8hvwdWCRrpzW-3" target="Z1wolNKo8hvwdWCRrpzW-4" edge="1">
          <mxGeometry relative="1" as="geometry" />
        </mxCell>
        <mxCell id="Z1wolNKo8hvwdWCRrpzW-17" style="edgeStyle=orthogonalEdgeStyle;rounded=1;sketch=1;hachureGap=4;jiggle=2;curveFitting=1;orthogonalLoop=1;jettySize=auto;html=1;entryX=1;entryY=0.5;entryDx=0;entryDy=0;fontFamily=Architects Daughter;fontSource=https%3A%2F%2Ffonts.googleapis.com%2Fcss%3Ffamily%3DArchitects%2BDaughter;fontSize=16;exitX=0.5;exitY=1;exitDx=0;exitDy=0;startArrow=classic;startFill=1;strokeColor=#97D077;" parent="1" source="Z1wolNKo8hvwdWCRrpzW-3" target="Z1wolNKo8hvwdWCRrpzW-5" edge="1">
          <mxGeometry relative="1" as="geometry" />
        </mxCell>
        <mxCell id="Z1wolNKo8hvwdWCRrpzW-21" style="edgeStyle=orthogonalEdgeStyle;rounded=1;sketch=1;hachureGap=4;jiggle=2;curveFitting=1;orthogonalLoop=1;jettySize=auto;html=1;entryX=0.5;entryY=1;entryDx=0;entryDy=0;fontFamily=Architects Daughter;fontSource=https%3A%2F%2Ffonts.googleapis.com%2Fcss%3Ffamily%3DArchitects%2BDaughter;fontSize=16;startArrow=classic;startFill=1;strokeColor=#97D077;" parent="1" source="Z1wolNKo8hvwdWCRrpzW-3" target="Z1wolNKo8hvwdWCRrpzW-18" edge="1">
          <mxGeometry relative="1" as="geometry" />
        </mxCell>
        <mxCell id="Z1wolNKo8hvwdWCRrpzW-28" style="edgeStyle=orthogonalEdgeStyle;rounded=1;sketch=1;hachureGap=4;jiggle=2;curveFitting=1;orthogonalLoop=1;jettySize=auto;html=1;entryX=0.5;entryY=1;entryDx=0;entryDy=0;fontFamily=Architects Daughter;fontSource=https%3A%2F%2Ffonts.googleapis.com%2Fcss%3Ffamily%3DArchitects%2BDaughter;fontSize=16;startArrow=classic;startFill=1;strokeColor=#FF0000;" parent="1" source="Z1wolNKo8hvwdWCRrpzW-5" target="Z1wolNKo8hvwdWCRrpzW-4" edge="1">
          <mxGeometry relative="1" as="geometry" />
        </mxCell>
        <mxCell id="Z1wolNKo8hvwdWCRrpzW-33" style="edgeStyle=orthogonalEdgeStyle;rounded=1;sketch=1;hachureGap=4;jiggle=2;curveFitting=1;orthogonalLoop=1;jettySize=auto;html=1;entryX=1;entryY=0.5;entryDx=0;entryDy=0;fontFamily=Architects Daughter;fontSource=https%3A%2F%2Ffonts.googleapis.com%2Fcss%3Ffamily%3DArchitects%2BDaughter;fontSize=16;startArrow=classic;startFill=1;strokeColor=#97D077;" parent="1" source="Z1wolNKo8hvwdWCRrpzW-32" target="Z1wolNKo8hvwdWCRrpzW-3" edge="1">
          <mxGeometry relative="1" as="geometry" />
        </mxCell>
        <mxCell id="Z1wolNKo8hvwdWCRrpzW-32" value="" style="shape=image;verticalLabelPosition=bottom;verticalAlign=top;imageAspect=0;aspect=fixed;image=data:image/svg+xml,PHN2ZyB4bWxucz0iaHR0cDovL3d3dy53My5vcmcvMjAwMC9zdmciIHZpZXdCb3g9IjAgMCAzMiAzMiIgaGVpZ2h0PSI4MDBweCIgd2lkdGg9IjgwMHB4IiBmaWxsPSIjMDAwMDAwIj4mI3hhOyAgPHBhdGggZD0iTTIyLjAxMCAyMi40NThjMC4xOTgtMC42NzIgMC4xMi0xLjI5Mi0wLjIwOC0xLjc1LTAuMjk3LTAuNDIyLTAuODAyLTAuNjY3LTEuNDExLTAuNjk4bC0xMS41NDctMC4xNDZjLTAuMDczIDAtMC4xNDEtMC4wMzYtMC4xNzctMC4wOTktMC4wMzYtMC4wNTctMC4wNDctMC4xMy0wLjAzMS0wLjIwOCAwLjA0Mi0wLjEwOSAwLjE1MS0wLjE5MyAwLjI3Ni0wLjIwM2wxMS42NDYtMC4xNTFjMS4zOC0wLjA2OCAyLjg4LTEuMTgyIDMuNDA2LTIuNTUybDAuNjYxLTEuNzM0YzAuMDMxLTAuMDc4IDAuMDQyLTAuMTUxIDAuMDIxLTAuMjI0LTAuNzUtMy4zOTYtMy43NzYtNS45MjctNy40MDEtNS45MjctMy4zMzkgMC02LjE2NyAyLjE1Ni03LjE4MiA1LjE0Ni0wLjY1Ni0wLjQ4NC0xLjQ5LTAuNzUtMi4zOTEtMC42NjEtMS42MDQgMC4xNTYtMi44OTEgMS40NDMtMy4wNDcgMy4wNDctMC4wMzYgMC40MTEtMC4wMTAgMC44MTggMC4wODMgMS4xODgtMi42MiAwLjA3OC00LjcwOCAyLjIxOS00LjcwOCA0Ljg1NCAwIDAuMjI5IDAuMDIxIDAuNDY0IDAuMDQ3IDAuNzAzIDAuMDIxIDAuMTA5IDAuMTE1IDAuMTkzIDAuMjI0IDAuMTkzaDIxLjMwN2MwLjEyNSAwIDAuMjM0LTAuMDgzIDAuMjc2LTAuMjAzek0yNS42ODggMTUuMDQyYy0wLjEwNCAwLTAuMjE0IDAtMC4zMTggMC4wMTYtMC4wNzggMC0wLjE0MSAwLjA1Ny0wLjE3MiAwLjEzbC0wLjQ0OCAxLjU2OGMtMC4xOTggMC42NzItMC4xMjUgMS4yOTIgMC4yMDggMS43NTUgMC4yOTcgMC40MjIgMC44MDcgMC42NjEgMS40MTcgMC42OTNsMi40NTMgMC4xNTFjMC4wNzggMCAwLjE0MSAwLjAzMSAwLjE4MiAwLjA5NCAwLjAzNiAwLjA1NyAwLjA0MiAwLjE0MSAwLjAyNiAwLjIwMy0wLjAzNiAwLjExNS0wLjE1MSAwLjIwMy0wLjI3MSAwLjIwOGwtMi41NjMgMC4xNTFjLTEuMzkxIDAuMDYzLTIuODggMS4xODItMy40MDYgMi41NTJsLTAuMTgyIDAuNDc5Yy0wLjA0MiAwLjA5NCAwLjAyNiAwLjE4OCAwLjEzIDAuMTg4aDguNzk3YzAuMDk5IDAgMC4xOTMtMC4wNjggMC4yMjQtMC4xNjcgMC4xNTEtMC41NDcgMC4yMzQtMS4xMiAwLjIzNC0xLjcwOCAwLTMuNDY5LTIuODMzLTYuMzAyLTYuMzEzLTYuMzAyeiIvPiYjeGE7PC9zdmc+;rounded=1;sketch=1;hachureGap=4;jiggle=2;curveFitting=1;fontFamily=Architects Daughter;fontSource=https%3A%2F%2Ffonts.googleapis.com%2Fcss%3Ffamily%3DArchitects%2BDaughter;fontSize=20;" parent="1" vertex="1">
          <mxGeometry x="520" y="242" width="80" height="80" as="geometry" />
        </mxCell>
        <mxCell id="Z1wolNKo8hvwdWCRrpzW-34" value="" style="group" parent="1" vertex="1" connectable="0">
          <mxGeometry x="100" y="440" width="100" height="80" as="geometry" />
        </mxCell>
        <mxCell id="Z1wolNKo8hvwdWCRrpzW-5" value="" style="shape=image;verticalLabelPosition=bottom;verticalAlign=top;imageAspect=0;aspect=fixed;image=data:image/svg+xml,PHN2ZyB4bWxucz0iaHR0cDovL3d3dy53My5vcmcvMjAwMC9zdmciIHJvbGU9ImltZyIgdmlld0JveD0iMCAwIDI0IDI0IiBoZWlnaHQ9IjgwMHB4IiB3aWR0aD0iODAwcHgiIGZpbGw9IiMwMDAwMDAiPjxwYXRoIGQ9Ik0xMiAwQzUuMzc1IDAgMCA1LjM3NSAwIDEyYzAgNi42MjcgNS4zNzUgMTIgMTIgMTIgNi42MjYgMCAxMi01LjM3MyAxMi0xMiAwLTYuNjI1LTUuMzczLTEyLTEyLTEyem0tLjYyNCAyMS42MnYtNy41MjhINy4xOUwxMy4yMDMgMi4zOHY3LjUyOGg0LjAyOUwxMS4zNzYgMjEuNjJ6Ii8+PC9zdmc+;sketch=1;curveFitting=1;jiggle=2;rounded=1;" parent="Z1wolNKo8hvwdWCRrpzW-34" vertex="1">
          <mxGeometry x="20" width="80" height="80" as="geometry" />
        </mxCell>
        <mxCell id="Z1wolNKo8hvwdWCRrpzW-15" value="" style="shape=image;verticalLabelPosition=bottom;verticalAlign=top;imageAspect=0;aspect=fixed;image=data:image/svg+xml,PHN2ZyByb2xlPSJpbWciIHhtbG5zPSJodHRwOi8vd3d3LnczLm9yZy8yMDAwL3N2ZyIgdmlld0JveD0iMCAwIDI0IDI0IiBoZWlnaHQ9IjgwMHB4IiB3aWR0aD0iODAwcHgiIGZpbGw9IiMwMDAwMDAiPjx0aXRsZT5QeXRob24gaWNvbjwvdGl0bGU+PHBhdGggZD0iTTE0LjMxLjE4bC45LjIuNzMuMjYuNTkuMy40NS4zMi4zNC4zNC4yNS4zNC4xNi4zMy4xLjMuMDQuMjYuMDIuMi0uMDEuMTNWOC41bC0uMDUuNjMtLjEzLjU1LS4yMS40Ni0uMjYuMzgtLjMuMzEtLjMzLjI1LS4zNS4xOS0uMzUuMTQtLjMzLjEtLjMuMDctLjI2LjA0LS4yMS4wMkg4LjgzbC0uNjkuMDUtLjU5LjE0LS41LjIyLS40MS4yNy0uMzMuMzItLjI3LjM1LS4yLjM2LS4xNS4zNy0uMS4zNS0uMDcuMzItLjA0LjI3LS4wMi4yMXYzLjA2SDMuMjNsLS4yMS0uMDMtLjI4LS4wNy0uMzItLjEyLS4zNS0uMTgtLjM2LS4yNi0uMzYtLjM2LS4zNS0uNDYtLjMyLS41OS0uMjgtLjczLS4yMS0uODgtLjE0LTEuMDVMMCAxMS45N2wuMDYtMS4yMi4xNi0xLjA0LjI0LS44Ny4zMi0uNzEuMzYtLjU3LjQtLjQ0LjQyLS4zMy40Mi0uMjQuNC0uMTYuMzYtLjEuMzItLjA1LjI0LS4wMWguMTZsLjA2LjAxaDguMTZ2LS44M0g2LjI0bC0uMDEtMi43NS0uMDItLjM3LjA1LS4zNC4xMS0uMzEuMTctLjI4LjI1LS4yNi4zMS0uMjMuMzgtLjIuNDQtLjE4LjUxLS4xNS41OC0uMTIuNjQtLjEuNzEtLjA2Ljc3LS4wNC44NC0uMDIgMS4yNy4wNSAxLjA3LjEzem0tNi4zIDEuOThsLS4yMy4zMy0uMDguNDEuMDguNDEuMjMuMzQuMzMuMjIuNDEuMDkuNDEtLjA5LjMzLS4yMi4yMy0uMzQuMDgtLjQxLS4wOC0uNDEtLjIzLS4zMy0uMzMtLjIyLS40MS0uMDktLjQxLjA5LS4zMy4yMnpNMjEuMSA2LjExbC4yOC4wNi4zMi4xMi4zNS4xOC4zNi4yNy4zNi4zNS4zNS40Ny4zMi41OS4yOC43My4yMS44OC4xNCAxLjA0LjA1IDEuMjMtLjA2IDEuMjMtLjE2IDEuMDQtLjI0Ljg2LS4zMi43MS0uMzYuNTctLjQuNDUtLjQyLjMzLS40Mi4yNC0uNC4xNi0uMzYuMDktLjMyLjA1LS4yNC4wMi0uMTYtLjAxaC04LjIydi44Mmg1Ljg0bC4wMSAyLjc2LjAyLjM2LS4wNS4zNC0uMTEuMzEtLjE3LjI5LS4yNS4yNS0uMzEuMjQtLjM4LjItLjQ0LjE3LS41MS4xNS0uNTguMTMtLjY0LjA5LS43MS4wNy0uNzcuMDQtLjg0LjAxLTEuMjctLjA0LTEuMDctLjE0LS45LS4yLS43My0uMjUtLjU5LS4zLS40NS0uMzMtLjM0LS4zNC0uMjUtLjM0LS4xNi0uMzMtLjEtLjMtLjA0LS4yNS0uMDItLjIuMDEtLjEzdi01LjM0bC4wNS0uNjQuMTMtLjU0LjIxLS40Ni4yNi0uMzguMy0uMzIuMzMtLjI0LjM1LS4yLjM1LS4xNC4zMy0uMS4zLS4wNi4yNi0uMDQuMjEtLjAyLjEzLS4wMWg1Ljg0bC42OS0uMDUuNTktLjE0LjUtLjIxLjQxLS4yOC4zMy0uMzIuMjctLjM1LjItLjM2LjE1LS4zNi4xLS4zNS4wNy0uMzIuMDQtLjI4LjAyLS4yMVY2LjA3aDIuMDlsLjE0LjAxLjIxLjAzem0tNi40NyAxNC4yNWwtLjIzLjMzLS4wOC40MS4wOC40MS4yMy4zMy4zMy4yMy40MS4wOC40MS0uMDguMzMtLjIzLjIzLS4zMy4wOC0uNDEtLjA4LS40MS0uMjMtLjMzLS4zMy0uMjMtLjQxLS4wOC0uNDEuMDgtLjMzLjIzeiIvPjwvc3ZnPg==;rounded=1;sketch=1;hachureGap=4;jiggle=2;curveFitting=1;fontFamily=Architects Daughter;fontSource=https%3A%2F%2Ffonts.googleapis.com%2Fcss%3Ffamily%3DArchitects%2BDaughter;fontSize=20;" parent="Z1wolNKo8hvwdWCRrpzW-34" vertex="1">
          <mxGeometry y="60" width="20" height="20" as="geometry" />
        </mxCell>
        <mxCell id="Z1wolNKo8hvwdWCRrpzW-29" value="" style="shape=image;verticalLabelPosition=bottom;verticalAlign=top;imageAspect=0;aspect=fixed;image=data:image/svg+xml,PHN2ZyB4bWw6c3BhY2U9InByZXNlcnZlIiB2aWV3Qm94PSIwIDAgNTEyIDUxMiIgeG1sbnM6eGxpbms9Imh0dHA6Ly93d3cudzMub3JnLzE5OTkveGxpbmsiIHhtbG5zPSJodHRwOi8vd3d3LnczLm9yZy8yMDAwL3N2ZyIgaWQ9Il94MzJfIiB2ZXJzaW9uPSIxLjEiIHdpZHRoPSI4MDBweCIgaGVpZ2h0PSI4MDBweCI+JiN4YTs8c3R5bGUgdHlwZT0idGV4dC9jc3MiPiYjeGE7CS5zdDB7ZmlsbDojMDAwMDAwO30mI3hhOzwvc3R5bGU+JiN4YTs8Zz4mI3hhOwk8cGF0aCBkPSJNNDQwLjkxNyw2Ny45MjVINzEuMDgzQzMxLjgyNyw2Ny45MjUsMCw5OS43NTIsMCwxMzkuMDA4djIzMy45ODRjMCwzOS4yNTYsMzEuODI3LDcxLjA4Myw3MS4wODMsNzEuMDgzJiN4QTsmIzk7JiM5O2gzNjkuODM0YzM5LjI1NSwwLDcxLjA4My0zMS44MjcsNzEuMDgzLTcxLjA4M1YxMzkuMDA4QzUxMiw5OS43NTIsNDgwLjE3Miw2Ny45MjUsNDQwLjkxNyw2Ny45MjV6IE0xNzguMTY2LDMyMS43MmwtOTkuNTQsODQuOTImI3hBOyYjOTsmIzk7Yy03LjAyMSw1Ljk5Mi0xNy41NzYsNS4xNTktMjMuNTY3LTEuODY5Yy01Ljk5Mi03LjAyMS01LjE1OS0xNy41NzYsMS44Ny0yMy41NjdsOTkuNTQtODQuOTJjNy4wMi01Ljk5MiwxNy41NzQtNS4xNTksMjMuNTY2LDEuODcmI3hBOyYjOTsmIzk7QzE4Ni4wMjcsMzA1LjE3NCwxODUuMTk0LDMxNS43MjksMTc4LjE2NiwzMjEuNzJ6IE0yNTYsMjg5LjQzNmMtMTMuMzE0LTAuMDMzLTI2LjIyLTQuNDU3LTM2LjMxLTEzLjE4M2wwLjAwOCwwLjAwOGwtMC4wMzItMC4wMjQmI3hBOyYjOTsmIzk7YzAuMDA4LDAuMDA4LDAuMDE3LDAuMDA4LDAuMDI0LDAuMDE2TDY2Ljk2MiwxNDMuNjk0Yy02Ljk4LTYuMDU4LTcuNzIzLTE2LjYxMi0xLjY3NC0yMy41ODNjNi4wNTctNi45OCwxNi42MTItNy43MjMsMjMuNTgyLTEuNjc0JiN4QTsmIzk7JiM5O2wxNTIuNzcxLDEzMi41OTJjMy4yNjUsMi45MDYsOC42NDUsNS4wMDQsMTQuMzU5LDQuOTcxYzUuNzA2LDAuMDE3LDEwLjk5NS0yLjAyNCwxNC40NC01LjAyOGwwLjA3NC0wLjA2NWwxNTIuNjE1LTEzMi40NjkmI3hBOyYjOTsmIzk7YzYuOTcxLTYuMDQ5LDE3LjUyNi01LjMwNiwyMy41ODMsMS42NzRjNi4wNDgsNi45Nyw1LjMwNiwxNy41MjUtMS42NzQsMjMuNTgzbC0xNTIuNzcsMTMyLjU5OSYjeEE7JiM5OyYjOTtDMjgyLjIxMSwyODQuOTI5LDI2OS4zMjIsMjg5LjQxOSwyNTYsMjg5LjQzNnogTTQ1Ni45NDgsNDA0Ljc3MWMtNS45OTIsNy4wMjgtMTYuNTQ3LDcuODYxLTIzLjU2NiwxLjg2OWwtOTkuNTQtODQuOTImI3hBOyYjOTsmIzk7Yy03LjAyOC01Ljk5Mi03Ljg2MS0xNi41NDYtMS44NjktMjMuNTY2YzUuOTkxLTcuMDI5LDE2LjU0Ni03Ljg2MSwyMy41NjYtMS44N2w5OS41NCw4NC45MiYjeEE7JiM5OyYjOTtDNDYyLjEwNywzODcuMTk1LDQ2Mi45NCwzOTcuNzUsNDU2Ljk0OCw0MDQuNzcxeiIgY2xhc3M9InN0MCIvPiYjeGE7PC9nPiYjeGE7PC9zdmc+;rounded=1;sketch=1;hachureGap=4;jiggle=2;curveFitting=1;fontFamily=Architects Daughter;fontSource=https%3A%2F%2Ffonts.googleapis.com%2Fcss%3Ffamily%3DArchitects%2BDaughter;fontSize=20;" parent="Z1wolNKo8hvwdWCRrpzW-34" vertex="1">
          <mxGeometry width="20" height="20" as="geometry" />
        </mxCell>
        <mxCell id="Z1wolNKo8hvwdWCRrpzW-35" value="" style="group" parent="1" vertex="1" connectable="0">
          <mxGeometry x="100" y="220" width="112.42000000000002" height="100" as="geometry" />
        </mxCell>
        <mxCell id="Z1wolNKo8hvwdWCRrpzW-4" value="" style="shape=image;verticalLabelPosition=bottom;verticalAlign=top;imageAspect=0;aspect=fixed;image=data:image/svg+xml,PHN2ZyB4bWxucz0iaHR0cDovL3d3dy53My5vcmcvMjAwMC9zdmciIGZpbGw9Im5vbmUiIHZpZXdCb3g9IjAgMCAyNCAyNCIgaGVpZ2h0PSI4MDBweCIgd2lkdGg9IjgwMHB4Ij4mI3hhOzxwYXRoIGZpbGw9IiMxQzI3NEMiIGQ9Ik0zLjE3MTU3IDE5LjgyODRDNC4zNDMxNSAyMSA2LjIyODc2IDIxIDEwIDIxSDEzLjkyOTJDMTMuNjU0MyAyMC41MjcyIDEzLjUgMTkuOTc5MiAxMy41IDE5LjQxMThDMTMuNSAxOC41OTU4IDEzLjgxOTEgMTcuODE5OSAxNC4zNTcxIDE3LjI1SDEzLjVDMTMuMDg1OCAxNy4yNSAxMi43NSAxNi45MTQyIDEyLjc1IDE2LjVDMTIuNzUgMTYuMDg1OCAxMy4wODU4IDE1Ljc1IDEzLjUgMTUuNzVIMTUuNDI4MkMxNS45Mzk1IDE0LjQ2MDEgMTcuMTU0OSAxMy41IDE4LjY2NjcgMTMuNUMyMC4yMjczIDEzLjUgMjEuNDc2MiAxNC41MjgzIDIxLjk1NSAxNS44ODA1TDIxLjk2OTQgMTUuODkwNUMyMiAxNS4wNzI3IDIyIDE0LjExOTQgMjIgMTNWMTIuNzVIMlYxM0MyIDE2Ljc3MTIgMiAxOC42NTY5IDMuMTcxNTcgMTkuODI4NFpNNiAxOC4yNUM1LjU4NTc5IDE4LjI1IDUuMjUgMTcuOTE0MiA1LjI1IDE3LjVMNS4yNSAxNS41QzUuMjUgMTUuMDg1OCA1LjU4NTc5IDE0Ljc1IDYgMTQuNzVDNi40MTQyMSAxNC43NSA2Ljc1IDE1LjA4NTggNi43NSAxNS41VjE3LjVDNi43NSAxNy45MTQyIDYuNDE0MjEgMTguMjUgNiAxOC4yNVpNOSAxOC4yNUM4LjU4NTc5IDE4LjI1IDguMjUgMTcuOTE0MiA4LjI1IDE3LjVWMTUuNUM4LjI1IDE1LjA4NTggOC41ODU3OSAxNC43NSA5IDE0Ljc1QzkuNDE0MjEgMTQuNzUgOS43NSAxNS4wODU4IDkuNzUgMTUuNVYxNy41QzkuNzUgMTcuOTE0MiA5LjQxNDIxIDE4LjI1IDkgMTguMjVaIiBjbGlwLXJ1bGU9ImV2ZW5vZGQiIGZpbGwtcnVsZT0iZXZlbm9kZCIvPiYjeGE7PHBhdGggZmlsbD0iIzFDMjc0QyIgZD0iTTMuMTcxNTcgNC4xNzE1N0MyIDUuMzQzMTUgMiA3LjIyODc2IDIgMTFWMTEuMjVIMjJWMTFDMjIgNy4yMjg3NiAyMiA1LjM0MzE1IDIwLjgyODQgNC4xNzE1N0MxOS42NTY5IDMgMTcuNzcxMiAzIDE0IDNIMTBDNi4yMjg3NiAzIDQuMzQzMTUgMyAzLjE3MTU3IDQuMTcxNTdaTTkgOS4yNUM4LjU4NTc5IDkuMjUgOC4yNSA4LjkxNDIxIDguMjUgOC41VjYuNUM4LjI1IDYuMDg1NzkgOC41ODU3OSA1Ljc1IDkgNS43NUM5LjQxNDIxIDUuNzUgOS43NSA2LjA4NTc5IDkuNzUgNi41VjguNUM5Ljc1IDguOTE0MjEgOS40MTQyMSA5LjI1IDkgOS4yNVpNNS4yNSA4LjVDNS4yNSA4LjkxNDIxIDUuNTg1NzkgOS4yNSA2IDkuMjVDNi40MTQyMSA5LjI1IDYuNzUgOC45MTQyMSA2Ljc1IDguNVY2LjVDNi43NSA2LjA4NTc5IDYuNDE0MjEgNS43NSA2IDUuNzVDNS41ODU3OSA1Ljc1IDUuMjUgNi4wODU3OSA1LjI1IDYuNUw1LjI1IDguNVpNMTIuNzUgNy41QzEyLjc1IDcuMDg1NzkgMTMuMDg1OCA2Ljc1IDEzLjUgNi43NUgxOEMxOC40MTQyIDYuNzUgMTguNzUgNy4wODU3OSAxOC43NSA3LjVDMTguNzUgNy45MTQyMSAxOC40MTQyIDguMjUgMTggOC4yNUgxMy41QzEzLjA4NTggOC4yNSAxMi43NSA3LjkxNDIxIDEyLjc1IDcuNVoiIGNsaXAtcnVsZT0iZXZlbm9kZCIgZmlsbC1ydWxlPSJldmVub2RkIi8+JiN4YTs8cGF0aCBmaWxsPSIjMUMyNzRDIiBkPSJNMjAuNjU0MyAxNi44ODA2QzIwLjU0MyAxNS44MjI2IDE5LjY5NTYgMTUgMTguNjY2NyAxNUMxNy44MjE2IDE1IDE3LjA5ODkgMTUuNTU1IDE2LjgwNiAxNi4zMzk1QzE2LjcxNjEgMTYuNTgwNCAxNi42NjY3IDE2Ljg0MjkgMTYuNjY2NyAxNy4xMTc2QzE2LjY2NjcgMTcuMzc2MyAxNi43MTA1IDE3LjYyNDIgMTYuNzkwNyAxNy44NTMzQzE2LjY5NjYgMTcuODMzOCAxNi41OTk0IDE3LjgyMzUgMTYuNSAxNy44MjM1QzE2LjA2MDEgMTcuODIzNSAxNS42NjQ0IDE4LjAyNCAxNS4zOTAxIDE4LjM0MzRDMTUuMTQ3NyAxOC42MjU1IDE1IDE5LjAwMDQgMTUgMTkuNDExOEMxNSAyMC4yODg5IDE1LjY3MTYgMjEgMTYuNSAyMUgyMEMyMS4xMDQ2IDIxIDIyIDIwLjA1MTkgMjIgMTguODgyNEMyMiAxNy45NTU0IDIxLjQzNzUgMTcuMTY3NiAyMC42NTQzIDE2Ljg4MDZaIiBjbGlwLXJ1bGU9ImV2ZW5vZGQiIGZpbGwtcnVsZT0iZXZlbm9kZCIvPiYjeGE7PHBhdGggZmlsbD0iIzFDMjc0QyIgZD0iTTIwLjY1NDMgMTYuODgwNkMyMC41NDMgMTUuODIyNiAxOS42OTU2IDE1IDE4LjY2NjcgMTVDMTcuODIxNiAxNSAxNy4wOTg5IDE1LjU1NSAxNi44MDYgMTYuMzM5NUMxNi43MTYxIDE2LjU4MDQgMTYuNjY2NyAxNi44NDI5IDE2LjY2NjcgMTcuMTE3NkMxNi42NjY3IDE3LjM3NjMgMTYuNzEwNSAxNy42MjQyIDE2Ljc5MDcgMTcuODUzM0MxNi42OTY2IDE3LjgzMzggMTYuNTk5NCAxNy44MjM1IDE2LjUgMTcuODIzNUMxNi4wNjAxIDE3LjgyMzUgMTUuNjY0NCAxOC4wMjQgMTUuMzkwMSAxOC4zNDM0QzE1LjE0NzcgMTguNjI1NSAxNSAxOS4wMDA0IDE1IDE5LjQxMThDMTUgMjAuMjg4OSAxNS42NzE2IDIxIDE2LjUgMjFIMjBDMjEuMTA0NiAyMSAyMiAyMC4wNTE5IDIyIDE4Ljg4MjRDMjIgMTcuOTU1NCAyMS40Mzc1IDE3LjE2NzYgMjAuNjU0MyAxNi44ODA2WiIvPiYjeGE7PC9zdmc+;sketch=1;curveFitting=1;jiggle=2;rounded=1;" parent="Z1wolNKo8hvwdWCRrpzW-35" vertex="1">
          <mxGeometry x="20" y="20" width="80" height="80" as="geometry" />
        </mxCell>
        <mxCell id="Z1wolNKo8hvwdWCRrpzW-26" value="" style="shape=image;verticalLabelPosition=bottom;verticalAlign=top;imageAspect=0;aspect=fixed;image=data:image/svg+xml,PHN2ZyB4bWxucz0iaHR0cDovL3d3dy53My5vcmcvMjAwMC9zdmciIHZlcnNpb249IjEuMSIgdmlld0JveD0iMCAwIDMyIDMyIiBoZWlnaHQ9IjgwMHB4IiB3aWR0aD0iODAwcHgiIGZpbGw9IiMwMDAwMDAiPiYjeGE7PHRpdGxlPnNxbGl0ZTwvdGl0bGU+JiN4YTs8cGF0aCBkPSJNNC44ODQgMi4zMzRjLTEuMjY1IDAuMDA1LTIuMjg5IDEuMDI5LTIuMjkzIDIuMjk0djIwLjc1NGMwLjAwNCAxLjI2NCAxLjAyOCAyLjI4OCAyLjI5MyAyLjI5MmgxMS43NjljLTAuMDU2LTAuNjcxLTAuMDg4LTEuNDUyLTAuMDg4LTIuMjQxIDAtMC40MDEgMC4wMDgtMC44MDEgMC4wMjUtMS4xOThsLTAuMDAyIDAuMDU3Yy0wLjAwOC0wLjA3Ny0wLjAxNC0wLjE3Ni0wLjAyMC0wLjI1cS0wLjIyOS0xLjQ5OC0wLjU5MS0yLjk3MmMtMC4xMTktMC41MDQtMC4yNzctMC45NDQtMC40NzgtMS4zNmwwLjAxNyAwLjAzOWMtMC4wODAtMC4xMjYtMC4xMjctMC4yNzktMC4xMjctMC40NDMgMC0wLjAzNCAwLjAwMi0wLjA2OCAwLjAwNi0wLjEwMWwtMCAwLjAwNGMwLjAwMy0wLjE3MyAwLjAyMC0wLjMzOSAwLjA0OS0wLjUwMWwtMC4wMDMgMC4wMTljMC4wODgtMC41MjMgMC4xOS0wLjk2MyAwLjMxNC0xLjM5NGwtMC4wMjIgMC4wODggMC4yNzEtMC4wMzVjLTAuMDIxLTAuMDQ0LTAuMDE4LTAuMDgxLTAuMDM5LTAuMTIxbC0wLjA1MS0wLjQ3NnEwLjIyNC0wLjc1MSAwLjQ3Ny0xLjQ5MmwwLjI1LTAuMDI0Yy0wLjAxMC0wLjAyMC0wLjAxMi0wLjA0Ny0wLjAyMy0wLjA2NmwtMC4wNTQtMC4zOTVjMS4wMDYtNC43MzEgMy4xMDctOC44NjQgNi4wMjktMTIuMjcybC0wLjAzMSAwLjAzN2MwLjA4Mi0wLjA4NiAwLjE2Ni0wLjE2IDAuMjQ3LTAuMjQyek0yOC4wOTQgMS42NTVjLTEuMjktMS4xNS0yLjg0OS0wLjY4Ny00LjM5IDAuNjhxLTAuMzU2IDAuMzE5LTAuNjg0IDAuNjY5Yy0yLjggMy4yOTQtNC44NDMgNy4zMTktNS44MDggMTEuNzQ3bC0wLjAzMyAwLjE4YzAuMjYxIDAuNTUxIDAuNDk0IDEuMjAxIDAuNjY0IDEuODc2bDAuMDE2IDAuMDc1cTAuMTE1IDAuNDM2IDAuMjA1IDAuODc4cy0wLjAyNC0wLjA4OS0wLjEyLTAuMzdsLTAuMDYyLTAuMTgycS0wLjAxOS0wLjA1MC0wLjA0MS0wLjFjLTAuMTcyLTAuNC0wLjY0Ny0xLjI0My0wLjg1Ny0xLjYxMS0wLjE3OSAwLjUyOS0wLjMzNyAxLjAyMi0wLjQ3IDEuNDcgMC40MTMgMC44NjMgMC43NDkgMS44NjcgMC45NTkgMi45MTdsMC4wMTQgMC4wODNzLTAuMDMxLTAuMTI0LTAuMTg0LTAuNTUyYy0wLjM0Mi0wLjczOS0wLjY2NC0xLjMzOC0xLjAxNS0xLjkxOWwwLjA1MCAwLjA4OWMtMC4xODUgMC40NjQtMC4yOTIgMS4wMDEtMC4yOTIgMS41NjQgMCAwLjEgMC4wMDMgMC4xOTkgMC4wMTAgMC4yOTdsLTAuMDAxLTAuMDEzYzAuMjE5IDAuNDI2IDAuNDAxIDAuOTIxIDAuNTE5IDEuNDM5bDAuMDA4IDAuMDQzYzAuMzU3IDEuMzc1IDAuNjA2IDMuMDQ5IDAuNjA2IDMuMDQ5bDAuMDIxIDAuMjhjLTAuMDE1IDAuMzQyLTAuMDIzIDAuNzQ0LTAuMDIzIDEuMTQ3IDAgMC44MDUgMC4wMzQgMS42MDIgMC4xMDEgMi4zOWwtMC4wMDctMC4xMDNjMC4wNTggMS4yMDYgMC4yODMgMi4zMzkgMC42NTEgMy40MDZsLTAuMDI2LTAuMDg2IDAuMTk0LTAuMTA1Yy0wLjM0Ni0xLjE5My0wLjU0NS0yLjU2NC0wLjU0NS0zLjk4MSAwLTAuMzQ0IDAuMDEyLTAuNjg0IDAuMDM1LTEuMDIybC0wLjAwMyAwLjA0NmMwLjIyMS0zLjc4MiAwLjk2NC03LjMxOSAyLjE1OC0xMC42NDFsLTAuMDgzIDAuMjY0YzEuNjU1LTQuOSA0LjM1OS05LjA3MyA3Ljg2MS0xMi40MTdsMC4wMTItMC4wMTFjLTIuNDkxIDIuMjQ5LTUuODYzIDkuNTM1LTYuODczIDEyLjIzMi0wLjk2MyAyLjQyLTEuNzk4IDUuMjk0LTIuMzY1IDguMjYzbC0wLjA0OCAwLjMwNWMwLjY2NC0xLjYzOSAxLjkxNC0yLjkyNiAzLjQ4My0zLjYyMmwwLjA0Mi0wLjAxN3MxLjMyMS0xLjYzIDIuODY0LTMuOTU2Yy0xLjE5NSAwLjI1LTIuMTg0IDAuNTIxLTMuMTUgMC44NDNsMC4xOTktMC4wNTdjLTAuNzUgMC4zMTQtMC45NTIgMC40MjEtMC45NTIgMC40MjEgMS4yODgtMC43OTEgMi43NzctMS41MTUgNC4zMzctMi4wOTJsMC4xNzgtMC4wNThjMi44NjctNC41MTUgNS45OTEtMTAuOTI5IDIuODQ1LTEzLjczNnoiLz4mI3hhOzwvc3ZnPg==;rounded=1;sketch=1;hachureGap=4;jiggle=2;curveFitting=1;fontFamily=Architects Daughter;fontSource=https%3A%2F%2Ffonts.googleapis.com%2Fcss%3Ffamily%3DArchitects%2BDaughter;fontSize=20;" parent="Z1wolNKo8hvwdWCRrpzW-35" vertex="1">
          <mxGeometry x="20" width="20" height="20" as="geometry" />
        </mxCell>
        <mxCell id="Z1wolNKo8hvwdWCRrpzW-27" value="" style="shape=image;verticalLabelPosition=bottom;verticalAlign=top;imageAspect=0;aspect=fixed;image=data:image/svg+xml,PHN2ZyB4bWxucz0iaHR0cDovL3d3dy53My5vcmcvMjAwMC9zdmciIHJvbGU9ImltZyIgdmlld0JveD0iMCAwIDI0IDI0IiBoZWlnaHQ9IjgwMHB4IiB3aWR0aD0iODAwcHgiIGZpbGw9IiMwMDAwMDAiPjx0aXRsZT5Qb3N0Z3JlU1FMIGljb248L3RpdGxlPjxwYXRoIGQ9Ik0xNy4xMjggMGExMC4xMzQgMTAuMTM0IDAgMCAwLTIuNzU1LjQwM2wtLjA2My4wMkExMC45MjIgMTAuOTIyIDAgMCAwIDEyLjYuMjU4QzExLjQyMi4yMzggMTAuNDEuNTI0IDkuNTk0IDEgOC43OS43MjEgNy4xMjIuMjQgNS4zNjQuMzM2IDQuMTQuNDAzIDIuODA0Ljc3NSAxLjgxNCAxLjgyLjgyNyAyLjg2NS4zMDUgNC40ODIuNDE1IDYuNjgyYy4wMy42MDcuMjAzIDEuNTk3LjQ5IDIuODc5cy42OSAyLjc4MyAxLjE5MyA0LjE1MmMuNTAzIDEuMzcgMS4wNTQgMi42IDEuOTE1IDMuNDM2LjQzLjQxOSAxLjAyMi43NzEgMS43Mi43NDIuNDktLjAyLjkzMy0uMjM1IDEuMzE1LS41NTIuMTg2LjI0NS4zODUuMzUyLjU2Ni40NTEuMjI4LjEyNS40NS4yMS42OC4yNjYuNDEzLjEwMyAxLjEyLjI0MSAxLjk0OC4xLjI4Mi0uMDQ3LjU3OS0uMTM5Ljg3NS0uMjcuMDExLjMzLjAyNC42NTMuMDM3Ljk4LjA0MSAxLjAzNi4wNjcgMS45OTMuMzc4IDIuODMyLjA1LjEzNy4xODcuODQzLjcyNyAxLjQ2Ni41NC42MjQgMS41OTggMS4wMTMgMi44MDMuNzU1Ljg1LS4xODIgMS45MzEtLjUxIDIuNjQ5LTEuNTMyLjcxLTEuMDEgMS4wMy0yLjQ1OSAxLjA5My00LjgwOS4wMTYtLjEyNy4wMzUtLjIzNS4wNTUtLjMzNmwuMTY5LjAxNWguMDJjLjkwNy4wNDEgMS44OTEtLjA4OCAyLjcxMy0uNDcuNzI4LS4zMzcgMS4yNzktLjY3OCAxLjY4LTEuMjgzLjEtLjE1LjIxLS4zMzEuMjQtLjY0M3MtLjE0OS0uOC0uNDQ2LTEuMDI1Yy0uNTk1LS40NTItLjk2OS0uMjgtMS4zNy0uMTk3YTYuMjcgNi4yNyAwIDAgMS0xLjIwMi4xNDZjMS4xNTYtMS45NDcgMS45ODUtNC4wMTUgMi40NTgtNS44NDUuMjgtMS4wOC40MzctMi4wNzYuNDUtMi45NDcuMDEzLS44NzEtLjA1OC0xLjY0Mi0uNTgtMi4zMDlDMjEuMzYuNiAxOS4wNjcuMDI0IDE3LjI5My4wMDRjLS4wNTUtLjAwMS0uMTEtLjAwMi0uMTY1LS4wMDF6bS0uMDQ3LjY0YzEuNjc4LS4wMTYgMy44MjIuNDU1IDUuMzYxIDIuNDIyLjM0Ni40NDIuNDQ5IDEuMDg4LjQzNyAxLjg4NC0uMDEzLjc5NS0uMTYgMS43NDctLjQyOSAyLjc5LS41MjIgMi4wMi0xLjUwOCA0LjM3NS0yLjg5NyA2LjQ4OGEuNzU2Ljc1NiAwIDAgMCAuMTU4LjA4NmMuMjkuMTIuOTUxLjIyMyAyLjI3LS4wNDguMzMyLS4wNy41NzUtLjExNy44MjcuMDc1YS41Mi41MiAwIDAgMSAuMTgzLjQyNS43MDQuNzA0IDAgMCAxLS4xMy4zMzZjLS4yNTUuMzgzLS43NTguNzQ2LTEuNDAzIDEuMDQ1LS41NzEuMjY2LTEuMzkuNDA1LTIuMTE2LjQxMy0uMzY0LjAwNC0uNy0uMDI0LS45ODUtLjExM2wtLjAxOC0uMDA3Yy0uMTEgMS4wNi0uMzYzIDMuMTUzLS41MjggNC4xMDgtLjEzMi43Ny0uMzYzIDEuMzgyLS44MDQgMS44NC0uNDQuNDU4LTEuMDYzLjczNC0xLjkwMS45MTQtMS4wMzguMjIzLTEuNzk1LS4wMTctMi4yODMtLjQyOC0uNDg3LS40MS0uNzEtLjk1NC0uODQ0LTEuMjg3LS4wOTItLjIzLS4xNC0uNTI4LS4xODYtLjkyNi0uMDQ2LS4zOTgtLjA4LS44ODUtLjEwMy0xLjQzNGE1MS40MjYgNTEuNDI2IDAgMCAxLS4wMy0yLjUyMyAzLjA2MSAzLjA2MSAwIDAgMS0xLjU1Mi43NmMtLjY4OS4xMTctMS4zMDQuMDAyLTEuNjcxLS4wOWEyLjI3NiAyLjI3NiAwIDAgMS0uNTItLjIwMWMtLjE3LS4wOTEtLjMzMi0uMTk0LS40NC0uMzk3YS41Ni41NiAwIDAgMS0uMDU3LS4zODEuNjEuNjEgMCAwIDEgLjIxOC0uMzMxYy4xOTgtLjE2MS40Ni0uMjUxLjg1NS0uMzMzLjcxOS0uMTQ4Ljk3LS4yNDkgMS4xMjMtLjM3LjEzLS4xMDQuMjc3LS4zMTQuNTM3LS42MjJhMS4xNiAxLjE2IDAgMCAxLS4wMDMtLjA0MSAyLjk2IDIuOTYgMCAwIDEtMS4zMy0uMzU4Yy0uMTUuMTU4LS45MTYuOTY4LTEuODUgMi4wOTItLjM5My40Ny0uODI3Ljc0LTEuMjg1Ljc1OS0uNDU4LjAyLS44NzItLjIxMS0xLjIyNC0uNTUyLS43MDMtLjY4My0xLjI2NC0xLjg1OC0xLjc1My0zLjE4Ni0uNDg4LTEuMzI4LS44ODUtMi44MDctMS4xNjctNC4wNjctLjI4My0xLjI2LS40NS0yLjI3Ni0uNDc0LTIuNzY2LS4xMDUtMi4wODIuMzgyLTMuNDg1IDEuMjE3LTQuMzcuODM2LS44ODUgMS45ODItMS4yMiAzLjA5OS0xLjI4NCAyLjAwNS0uMTE1IDMuOTA5LjU4NCA0LjI5NC43MzQuNzQyLS41MDQgMS42OTgtLjgxOCAyLjg5Mi0uNzk4YTcuMzkgNy4zOSAwIDAgMSAxLjY4MS4yMThsLjAyLS4wMDlhNi44NTQgNi44NTQgMCAwIDEgLjczOS0uMjE0QTkuNjI2IDkuNjI2IDAgMCAxIDE3LjA4LjY0MnptLjE1Mi42N2gtLjE0NmE4Ljc0IDguNzQgMCAwIDAtMS43MDQuMTkyYzEuMjQ2LjU1MiAyLjE4NyAxLjQwMiAyLjg1IDIuMjVhOC40NCA4LjQ0IDAgMCAxIDEuMTMyIDEuOTJjLjExLjI2NC4xODQuNDg3LjIyNi42Ni4wMjEuMDg3LjAzNS4xNi4wNC4yMzYuMDAyLjAzOC4wMDQuMDc3LS4wMTIuMTQ0IDAgLjAwMy0uMDA1LjAxLS4wMDYuMDEzLjAzLjg3Ni0uMTg3IDEuNDctLjIxMyAyLjMwNi0uMDIuNjA2LjEzNSAxLjMxOC4xNzMgMi4wOTUuMDM2LjczLS4wNTIgMS41MzItLjUyNiAyLjMxOS4wNC4wNDguMDc2LjA5Ni4xMTQuMTQ0IDEuMjU0LTEuOTc1IDIuMTU4LTQuMTYgMi42NC02LjAyMy4yNTgtMS4wMDMuMzk1LTEuOTEyLjQwNy0yLjYzMi4wMS0uNzItLjEyNC0xLjI0Mi0uMjk1LTEuNDYtMS4zNDItMS43MTYtMy4xNTgtMi4xNTMtNC42OC0yLjE2NXptLTQuNzkuMjU2Yy0xLjE4Mi4wMDMtMi4wMy4zNi0yLjY3My44OTUtLjY2My41NTMtMS4xMDggMS4zMS0xLjQgMi4wODUtLjM0Ny45Mi0uNDY2IDEuODEtLjUxMyAyLjQxNGwuMDEzLS4wMDhjLjM1Ny0uMi44MjYtLjQgMS4zMjgtLjUxNi41MDItLjExNSAxLjA0My0uMTUxIDEuNTMzLjAzOXMuODk1LjYzNyAxLjA0MiAxLjMxNWMuNzA0IDMuMjU3LS4yMTkgNC40NjgtLjU1OSA1LjM4MmE5LjYxIDkuNjEgMCAwIDAtLjMzMSAxLjAxM2MuMDQzLS4wMS4wODYtLjAyMi4xMjktLjAyNi4yNC0uMDIuNDI4LjA2LjU0LjEwOC4zNDIuMTQyLjU3Ny40NC43MDQuNzguMDMzLjA4OS4wNTcuMTg1LjA3MS4yODRhLjMzNi4zMzYgMCAwIDEgLjAyLjEyNyA1NS4xNCA1NS4xNCAwIDAgMCAuMDEzIDMuNzM4Yy4wMjMuNTM4LjA1NyAxLjAxMi4xIDEuMzg2LjA0My4zNzMuMTA0LjY1Ny4xNDMuNzUzLjEyOC4zMi4zMTUuNzM5LjY1MyAxLjAyNC4zMzguMjg0LjgyMy40NzQgMS43MDkuMjg0Ljc2OC0uMTY1IDEuMjQyLS4zOTQgMS41NTktLjcyMy4zMTYtLjMyOS41MDUtLjc4Ny42MjYtMS40ODguMTgxLTEuMDUuNTQ1LTQuMDk1LjU4OS00LjY2OC0uMDItLjQzMi4wNDQtLjc2NC4xODItMS4wMTcuMTQyLS4yNi4zNjItLjQxOS41NTItLjUwNS4wOTUtLjA0My4xODQtLjA3Mi4yNTctLjA5M2E1Ljk1NiA1Ljk1NiAwIDAgMC0uMjQzLS4zMjUgNC40NTYgNC40NTYgMCAwIDEtLjY2Ni0xLjA5OSA4LjI5NiA4LjI5NiAwIDAgMC0uMjU3LS40ODNjLS4xMzMtLjI0LS4zMDEtLjU0LS40NzctLjg3Ny0uMzUyLS42NzUtLjczNS0xLjQ5My0uOTM0LTIuMjktLjE5OC0uNzk2LS4yMjctMS42Mi4yODEtMi4yMDEuNDUtLjUxNiAxLjI0LS43MyAyLjQyNi0uNjEtLjAzNS0uMTA1LS4wNTYtLjE5Mi0uMTE1LS4zMzJhNy44MTcgNy44MTcgMCAwIDAtMS4wNDEtMS43NjRjLTEuMDA1LTEuMjg1LTIuNjMyLTIuNTU5LTUuMTQ2LTIuNmgtLjExNXptLTYuNjQyLjA1MmMtLjEyNyAwLS4yNTQuMDA0LS4zOC4wMTEtMS4wMS4wNTgtMS45NjUuMzUxLTIuNjQ4IDEuMDc1LS42ODQuNzI0LTEuMTM0IDEuOTExLTEuMDM2IDMuODc2LjAxOS4zNzIuMTgxIDEuNDE0LjQ1OSAyLjY1Mi4yNzcgMS4yMzguNjcgMi42OTUgMS4xNDIgMy45ODIuNDczIDEuMjg3IDEuMDQ2IDIuNDA3IDEuNTkgMi45MzcuMjc0LjI2NS41MTIuMzcyLjcyOC4zNjMuMjE3LS4wMS40NzgtLjEzNS43OTctLjUxOGE0My4yNDQgNDMuMjQ0IDAgMCAxIDEuODEtMi4wNDggMy40OTcgMy40OTcgMCAwIDEtMS4xNjctMy4xNWMuMTAzLS43MzkuMTE3LTEuNDMuMTA1LTEuOTc2LS4wMTItLjUzMi0uMDUtLjg4Ni0uMDUtMS4xMDdhLjMzNi4zMzYgMCAwIDEgMC0uMDE5di0uMDA1bC0uMDAxLS4wMDZ2LS4wMDFhOS44OTMgOS44OTMgMCAwIDEgLjU5Mi0zLjM3NmMuMjgtLjc0NC42OTctMS41IDEuMzIyLTIuMTEyLS42MTQtLjIwMi0xLjcwNC0uNTEtMi44ODQtLjU2OGE3LjYwMyA3LjYwMyAwIDAgMC0uMzgtLjAxek0xOC4xOTkgNi45Yy0uNjc5LjAwOS0xLjA2LjE4NC0xLjI2LjQxMy0uMjgzLjMyNS0uMzEuODk1LS4xMzQgMS41OTcuMTc1LjcwMy41MzcgMS40ODkuODc3IDIuMTQyLjE3LjMyNy4zMzUuNjIxLjQ2OC44Ni4xMzQuMjQuMjMyLjQxLjI5Mi41NTUuMDU1LjEzNC4xMTYuMjUyLjE3OC4zNjIuMjYzLS41NTUuMzEtMS4xLjI4My0xLjY2OC0uMDM1LS43MDMtLjE5OC0xLjQyMi0uMTc0LTIuMTUuMDI3LS44NTEuMTk1LTEuNDA1LjIxLTIuMDYzYTUuNzkzIDUuNzkzIDAgMCAwLS43NC0uMDQ4em0tOC4yMzQuMTE1YTIuODIgMi44MiAwIDAgMC0uNjE2LjA3NCA0LjY2NSA0LjY2NSAwIDAgMC0xLjE1My40NDkgMi40MTcgMi40MTcgMCAwIDAtLjM0OS4yMjhsLS4wMjIuMDJjLjAwNi4xNDYuMDM1LjUuMDQ3IDEuMDIxLjAxMi41Ny0uMDAyIDEuMjk3LS4xMTIgMi4wODQtLjIzOSAxLjcxIDEuMDAyIDMuMTI2IDIuNDYgMy4xMjguMDg1LS4zNTEuMjI1LS43MDcuMzY1LTEuMDgyLjQwNi0xLjA5NCAxLjIwNS0xLjg5Mi41MzItNS4wMDYtLjExLS41MS0uMzI4LS43MTYtLjYyOC0uODMyYTEuNDc0IDEuNDc0IDAgMCAwLS41MjQtLjA4NHptNy45MTcuMjA0aC4wNWMuMDY2LjAwMi4xMjcuMDA5LjE4LjAyMi4wNTQuMDEyLjEuMDMuMTM4LjA1NWEuMTY0LjE2NCAwIDAgMSAuMDc1LjExbC0uMDAxLjAwOGguMDAxLS4wMDFhLjI0LjI0IDAgMCAxLS4wMzUuMTM1LjY2OC42NjggMCAwIDEtLjExLjE1LjY3Ny42NzcgMCAwIDEtLjM4Ni4yMTIuNTkuNTkgMCAwIDEtLjQxLS4xMDMuNjA4LjYwOCAwIDAgMS0uMTMtLjExOC4yNi4yNiAwIDAgMS0uMDYzLS4xMjcuMTcuMTcgMCAwIDEgLjA0Mi0uMTI4LjM4NC4zODQgMCAwIDEgLjExNy0uMDljLjA5Ni0uMDU0LjIyNi0uMDk0LjM3My0uMTE2LjA1NS0uMDA4LjEwOS0uMDEyLjE2LS4wMTN6bS03LjgyLjE2OGMuMDUzIDAgLjEwOS4wMDUuMTY2LjAxMy4xNTMuMDIxLjI4OS4wNjIuMzkzLjEyMmEuNDQ2LjQ0NiAwIDAgMSAuMTMzLjEwNi4yMjMuMjIzIDAgMCAxIC4wNTQuMTcuMzAyLjMwMiAwIDAgMS0uMDc1LjE1NC42NDkuNjQ5IDAgMCAxLS4xNDMuMTMuNjQuNjQgMCAwIDEtLjQ0OC4xMTMuNzI4LjcyOCAwIDAgMS0uNDItLjIyOC43MS43MSAwIDAgMS0uMTE4LS4xNjQuMjguMjggMCAwIDEtLjA0MS0uMTc3Yy4wMTUtLjEwOC4xMDQtLjE2NC4xOTEtLjE5NWEuODY2Ljg2NiAwIDAgMSAuMzA3LS4wNHptOS4wNiA3LjM0M2wtLjAwMy4wMDFjLS4xNDcuMDUzLS4yNjguMDc1LS4zNy4xMmEuNDUyLjQ1MiAwIDAgMC0uMjM5LjIxNGMtLjA2My4xMTUtLjExNy4zMTktLjEwMS42NjZhLjUxLjUxIDAgMCAwIC4xNDguMDdjLjE3MS4wNTIuNDU4LjA4Ni43NzguMDgxLjYzOC0uMDA3IDEuNDIzLS4xNTYgMS44NC0uMzVhMy45NSAzLjk1IDAgMCAwIC45NDMtLjYxNWgtLjAwMWMtMS4zOTMuMjg4LTIuMTguMjExLTIuNjYzLjAxMmExLjMxNSAxLjMxNSAwIDAgMS0uMzMyLS4yem0tOC4wMzEuMDk0aC0uMDIxYy0uMDUzLjAwNS0uMTMuMDIzLS4yNzkuMTg4LS4zNDguMzktLjQ3LjYzNS0uNzU3Ljg2NC0uMjg3LjIyOC0uNjYuMzUtMS40MDUuNTAzLS4yMzYuMDQ4LS4zNzEuMTAxLS40NjEuMTQ0LjAyOS4wMjQuMDI2LjAzLjA3LjA1My4xMDkuMDYuMjQ5LjExMy4zNjIuMTQyLjMyLjA4Ljg0Ni4xNzMgMS4zOTUuMDguNTQ5LS4wOTQgMS4xMi0uMzU3IDEuNjA3LTEuMDQuMDg0LS4xMTguMDkzLS4yOTIuMDI0LS40NzktLjA3LS4xODctLjIyMy0uMzQ4LS4zMzEtLjM5M2EuNjUzLjY1MyAwIDAgMC0uMjA0LS4wNnoiLz48L3N2Zz4=;rounded=1;sketch=1;hachureGap=4;jiggle=2;curveFitting=1;fontFamily=Architects Daughter;fontSource=https%3A%2F%2Ffonts.googleapis.com%2Fcss%3Ffamily%3DArchitects%2BDaughter;fontSize=20;" parent="Z1wolNKo8hvwdWCRrpzW-35" vertex="1">
          <mxGeometry y="20" width="20" height="20" as="geometry" />
        </mxCell>
        <mxCell id="Z1wolNKo8hvwdWCRrpzW-30" value="" style="shape=image;verticalLabelPosition=bottom;verticalAlign=top;imageAspect=0;aspect=fixed;image=data:image/svg+xml,PHN2ZyB4bWw6c3BhY2U9InByZXNlcnZlIiB2aWV3Qm94PSIwIDAgMjQgMjQiIHhtbG5zOnhsaW5rPSJodHRwOi8vd3d3LnczLm9yZy8xOTk5L3hsaW5rIiB4bWxucz0iaHR0cDovL3d3dy53My5vcmcvMjAwMC9zdmciIGlkPSJwbGF0Zm9ybS1rdWJlcm5ldGVzIiB2ZXJzaW9uPSIxLjEiIHdpZHRoPSI4MDBweCIgaGVpZ2h0PSI4MDBweCIgZmlsbD0iIzAwMDAwMCI+JiN4YTs8cGF0aCBkPSJNMTYuMDUsMTAuMjhjMC40OSwwLjc2LDAuNzgsMS42NSwwLjc4LDIuNjJjMCwwLjA3LTAuMDIsMC4xMy0wLjAyLDAuMTlsLTMuMS0wLjcyYy0wLjM2LTAuMDgtMC43MSwwLjE0LTAuOCwwLjUmI3hBOyYjOTtjLTAuMDgsMC4zNiwwLjE0LDAuNzEsMC41LDAuOGwzLjE1LDAuNzNjLTAuMzMsMC45OS0wLjk2LDEuODUtMS43OSwyLjQ0bC0xLjQ3LTMuMDNjLTAuMTYtMC4zMy0wLjU2LTAuNDctMC44OS0wLjMxJiN4QTsmIzk7Yy0wLjMzLDAuMTYtMC40NywwLjU2LTAuMzEsMC44OWwxLjQ4LDMuMDVjLTAuNSwwLjE4LTEuMDMsMC4yOS0xLjU5LDAuMjljLTAuNTYsMC0xLjA4LTAuMTEtMS41OC0wLjI5bDEuNDgtMy4wNSYjeEE7JiM5O2MwLjE2LTAuMzMsMC4wMi0wLjczLTAuMzEtMC44OWMtMC4zMy0wLjE2LTAuNzMtMC4wMi0wLjg5LDAuMzFsLTEuNDcsMy4wM2MtMC44NC0wLjU5LTEuNDctMS40NS0xLjgtMi40NWwzLjE2LTAuNzMmI3hBOyYjOTtjMC4zNi0wLjA4LDAuNTgtMC40NCwwLjUtMC44Yy0wLjA4LTAuMzYtMC40NC0wLjU4LTAuOC0wLjVsLTMuMSwwLjcyYzAtMC4wNy0wLjAyLTAuMTMtMC4wMi0wLjJjMC0wLjk3LDAuMjktMS44NywwLjc4LTIuNjImI3hBOyYjOTtsMi4zOCwxLjljMC4xMiwwLjEsMC4yNywwLjE1LDAuNDEsMC4xNWMwLjIsMCwwLjM5LTAuMDksMC41Mi0wLjI1YzAuMjMtMC4yOSwwLjE4LTAuNzEtMC4xMS0wLjkzTDguODIsOS4yNyYjeEE7JiM5O2MwLjY5LTAuNjEsMS41NS0xLjAxLDIuNTEtMS4xNVYxMWMwLDAuMzcsMC4zLDAuNjcsMC42NywwLjY3czAuNjctMC4zLDAuNjctMC42N1Y4LjEzYzAuOTYsMC4xMywxLjgxLDAuNTQsMi41MSwxLjE1bC0yLjMzLDEuODUmI3hBOyYjOTtjLTAuMjksMC4yMy0wLjMzLDAuNjUtMC4xMSwwLjkzYzAuMTMsMC4xNywwLjMyLDAuMjUsMC41MiwwLjI1YzAuMTUsMCwwLjI5LTAuMDUsMC40MS0wLjE1TDE2LjA1LDEwLjI4eiBNMjMuNTgsMTYuMzEmI3hBOyYjOTtjLTAuNywwLjg2LTIuMDgsMi41OC0yLjA4LDIuNThsLTIuMDcsMi41OGMwLDAtMS4wMywxLjI5LTEuNTUsMS45M2MtMC4zMSwwLjM4LTAuNzEsMC41OS0xLjIsMC41OWMtMS41NiwwLjAxLTQuNjgsMC00LjY4LDAmI3hBOyYjOTtzMCwwLDAsMGMtMS41MSwwLTMuMDEtMC4wMS00LjUyLDBDNi44NSwyNCw2LjM4LDIzLjc2LDYuMDEsMjMuMjhjLTAuNi0wLjc2LTEuODItMi4yNy0xLjgyLTIuMjdMMi4yLDE4LjU0YzAsMC0xLjItMS41MS0xLjgxLTIuMjUmI3hBOyYjOTtjLTAuMzktMC40OC0wLjQ3LTEtMC4zMy0xLjU5YzAuMzgtMS42MiwxLjEzLTQuODgsMS4xMy00Ljg4czAuNi0yLjYxLDAuOS0zLjkyYzAuMTItMC41MSwwLjQzLTAuODYsMC45LTEuMDhsOC4yNi0zLjk1JiN4QTsmIzk7YzAuNDgtMC4yMywwLjk3LTAuMjQsMS40NS0wLjAxYzIuMTksMS4wNSw2LjU4LDMuMTQsNi41OCwzLjE0czEuMDcsMC41MiwxLjYxLDAuNzdjMC41OCwwLjI2LDAuOSwwLjY5LDEuMDQsMS4zMSYjeEE7JiM5O2MwLjM1LDEuNTcsMS4wOCw0LjcyLDEuMDgsNC43MnMwLjYzLDIuNzQsMC45NCw0LjExQzI0LjA4LDE1LjQ0LDIzLjkxLDE1LjksMjMuNTgsMTYuMzF6IE0yMC4xNSwxMy44NmwtMi4wMi0wLjQ3JiN4QTsmIzk7YzAuMDEtMC4xNywwLjAzLTAuMzMsMC4wMy0wLjVjMC0xLjI4LTAuMzktMi40Ny0xLjA2LTMuNDZsMS43NC0xLjM5YzAuMjktMC4yMywwLjMzLTAuNjUsMC4xMS0wLjkzYy0wLjIzLTAuMjktMC42NS0wLjM0LTAuOTMtMC4xMSYjeEE7JiM5O2wtMS43OCwxLjQyYy0wLjk1LTAuOTEtMi4xOS0xLjUxLTMuNTctMS42NlY0LjM5YzAtMC4zNy0wLjMtMC42Ny0wLjY3LTAuNjdzLTAuNjcsMC4zLTAuNjcsMC42N3YyLjM3JiN4QTsmIzk7QzkuOTUsNi45Miw4LjcxLDcuNTIsNy43Niw4LjQzTDUuOTgsNy4wMUM1LjcsNi43OCw1LjI4LDYuODMsNS4wNSw3LjEyQzQuODIsNy40MSw0Ljg3LDcuODMsNS4xNiw4LjA1bDEuNzQsMS4zOCYjeEE7JiM5O2MtMC42NywwLjk5LTEuMDYsMi4xOC0xLjA2LDMuNDZjMCwwLjE3LDAuMDEsMC4zNCwwLjAzLDAuNWwtMi4wMSwwLjQ3Yy0wLjM2LDAuMDgtMC41OCwwLjQ0LTAuNSwwLjhDMy40MiwxNC45NywzLjcsMTUuMTgsNCwxNS4xOCYjeEE7JiM5O2MwLjA1LDAsMC4xLTAuMDEsMC4xNS0wLjAybDEuOTUtMC40NWMwLjQzLDEuMzksMS4zNCwyLjU3LDIuNTMsMy4zNWwtMC44MywxLjdjLTAuMTYsMC4zMy0wLjAyLDAuNzMsMC4zMSwwLjg5JiN4QTsmIzk7YzAuMDksMC4wNSwwLjE5LDAuMDcsMC4yOSwwLjA3YzAuMjUsMCwwLjQ4LTAuMTQsMC42LTAuMzdsMC44Mi0xLjY4YzAuNjgsMC4yNiwxLjQxLDAuNCwyLjE3LDAuNGMwLjc3LDAsMS41LTAuMTUsMi4xOC0wLjQxJiN4QTsmIzk7bDAuODIsMS42OGMwLjEyLDAuMjQsMC4zNSwwLjM3LDAuNiwwLjM3YzAuMSwwLDAuMi0wLjAyLDAuMjktMC4wN2MwLjMzLTAuMTYsMC40Ny0wLjU2LDAuMzEtMC44OWwtMC44My0xLjcmI3hBOyYjOTtjMS4xOS0wLjc4LDIuMS0xLjk2LDIuNTMtMy4zNWwxLjk2LDAuNDZjMC4wNSwwLjAxLDAuMSwwLjAyLDAuMTUsMC4wMmMwLjMsMCwwLjU4LTAuMjEsMC42NS0wLjUxJiN4QTsmIzk7QzIwLjczLDE0LjMxLDIwLjUxLDEzLjk1LDIwLjE1LDEzLjg2eiIvPiYjeGE7PC9zdmc+;rounded=1;sketch=1;hachureGap=4;jiggle=2;curveFitting=1;fontFamily=Architects Daughter;fontSource=https%3A%2F%2Ffonts.googleapis.com%2Fcss%3Ffamily%3DArchitects%2BDaughter;fontSize=20;" parent="Z1wolNKo8hvwdWCRrpzW-35" vertex="1">
          <mxGeometry x="80" width="20" height="20" as="geometry" />
        </mxCell>
        <mxCell id="Z1wolNKo8hvwdWCRrpzW-31" value="" style="shape=image;verticalLabelPosition=bottom;verticalAlign=top;imageAspect=0;aspect=fixed;image=data:image/svg+xml,PHN2ZyBwcmVzZXJ2ZUFzcGVjdFJhdGlvPSJ4TWlkWU1pZCIgeG1sbnM6eGxpbms9Imh0dHA6Ly93d3cudzMub3JnLzE5OTkveGxpbmsiIHhtbG5zPSJodHRwOi8vd3d3LnczLm9yZy8yMDAwL3N2ZyIgdmVyc2lvbj0iMS4xIiB2aWV3Qm94PSItMC4wMDAwMDM4MTQ2OTcyNjU2MjUgMCAyNTYgNDEyLjY3MzI3ODgwODU5Mzc1IiBoZWlnaHQ9Ijc5OS4zNjcxMjYwMjE0ODkxIiB3aWR0aD0iNDk1Ljg4Mzc3NzIzOTcwOTQ1Ij4mI3hhOyAgICA8Zz4mI3hhOyAgICAgICAgPHBhdGggZmlsbD0iIzFBMTkxOSIgZD0iTTg3LjkzMjA2OTIsMzYuNzE0MTgxIEM4My4zODI5MzYsMzIuMTQyNzQ4MiA3Ny4wMzY0NDkxLDI5LjMxOTYwOTYgNjkuOTgwODMyNywyOS4zMTk2MDk2IEM2Mi45NTE5NzU5LDI5LjMxOTYwOTYgNTYuNjU0NTQ4MywzMi4xNDI3NDgyIDUyLjE1ODkzNDMsMzYuNzE0MTgxIEw1Mi4wMjk1OTYyLDM2LjcxNDE4MSBDNDcuNDkzODQyOCw0MS4yNjMzMTQzIDQ0LjY3MDcwNDIsNDcuNjE0MjYxIDQ0LjY3MDcwNDIsNTQuNjQzMTE3OSBDNDQuNjcwNzA0Miw2MS42OTg3MzQzIDQ3LjQ5Mzg0MjgsNjcuOTk2MTYxOCA1Mi4wMjk1OTYyLDcyLjUxODUzNTUgTDUyLjE1ODkzNDMsNzIuNjIxMTEzOSBDNTYuNjU0NTQ4Myw3Ny4xNzAyNDcyIDYyLjk1MTk3NTksNzkuOTY2NjI2MSA2OS45ODA4MzI3LDc5Ljk2NjYyNjEgQzc3LjAzNjQ0OTEsNzkuOTY2NjI2MSA4My4zODI5MzYsNzcuMTcwMjQ3MiA4Ny45MzIwNjkyLDcyLjYyMTExMzkgTDg3Ljk5ODk2ODIsNzIuNTE4NTM1NSBDOTIuNTU3MDIxMyw2Ny45OTYxNjE4IDk1LjM1MzQwMDIsNjEuNjk4NzM0MyA5NS4zNTM0MDAyLDU0LjY0MzExNzkgQzk1LjM1MzQwMDIsNDcuNjE0MjYxIDkyLjU1NzAyMTMsNDEuMjYzMzE0MyA4Ny45OTg5NjgyLDM2LjcxNDE4MSBMODcuOTMyMDY5MiwzNi43MTQxODEgWiBNNjkuOTgwODMyNywzODMuMzUzNjcyIEM3Ny4wMzY0NDkxLDM4My4zNTM2NzIgODMuMzgyOTM2LDM4MC40ODE0NzUgODcuOTMyMDY5MiwzNzUuOTg1ODYxIEw4Ny45OTg5NjgyLDM3NS44NTIwNjMgQzkyLjU1NzAyMTMsMzcxLjM2NTM2OCA5NS4zNTM0MDAyLDM2NS4wMTQ0MjIgOTUuMzUzNDAwMiwzNTguMDM0NjI0IEM5NS4zNTM0MDAyLDM1MC45NzkwMDggOTIuNTU3MDIxMywzNDQuNjU0ODIxIDg3Ljk5ODk2ODIsMzQwLjA4MzM4OCBMODcuOTMyMDY5MiwzNDAuMDgzMzg4IEM4My4zODI5MzYsMzM1LjQ1ODQzNiA3Ny4wMzY0NDkxLDMzMi42NjIwNTcgNjkuOTgwODMyNywzMzIuNjYyMDU3IEM2Mi45NTE5NzU5LDMzMi42NjIwNTcgNTYuNjU0NTQ4MywzMzUuNDU4NDM2IDUyLjE1ODkzNDMsMzQwLjA4MzM4OCBMNTIuMDI5NTk2MiwzNDAuMDgzMzg4IEM0Ny40OTM4NDI4LDM0NC42NTQ4MjEgNDQuNjcwNzA0MiwzNTAuOTc5MDA4IDQ0LjY3MDcwNDIsMzU4LjAzNDYyNCBDNDQuNjcwNzA0MiwzNjUuMDE0NDIyIDQ3LjQ5Mzg0MjgsMzcxLjM2NTM2OCA1Mi4wMjk1OTYyLDM3NS44NTIwNjMgTDUyLjE1ODkzNDMsMzc1Ljk4NTg2MSBDNTYuNjU0NTQ4MywzODAuNDgxNDc1IDYyLjk1MTk3NTksMzgzLjM1MzY3MiA2OS45ODA4MzI3LDM4My4zNTM2NzIgWiBNMjA3Ljk1MzM2NywzMDYuNjMzODc5IEMyMTQuMjI4NDk1LDMwNC45ODgxNjMgMjE5LjkxMDQ1MiwzMDAuOTYwODQyIDIyMy4zNzU4MjEsMjk0Ljg3MzAzMSBMMjIzLjg0NDExNCwyOTMuOTg1NTA0IEMyMjYuOTI1OTI5LDI4OC4yMDk4ODkgMjI3LjQ4Nzg4MSwyODEuNTQ2NzQ3IDIyNS44NDIxNjUsMjc1LjY0MTc5NCBDMjI0LjE4MzA2OSwyNjkuMzE3NjA3IDIyMC4xMDY2ODksMjYzLjcyNDg0OSAyMTQuMDMyMjU4LDI2MC4yMjM4IEwyMTMuNjc5OTIzLDI1OS45ODc0MjMgQzIwNy43NjE1OSwyNTYuNzQ1MDUxIDIwMS4wMTgxNjksMjU2LjA0MDM4MSAxOTQuODIzMzIsMjU3LjcxMjg1NyBDMTg4LjUyNTg5MywyNTkuMjgyNzU0IDE4Mi44NzA2OTYsMjYzLjQ4ODQ3MiAxNzkuNDIzMTY2LDI2OS41MjcyMjMgQzE3NS45MzEwMzcsMjc1LjUwNzk5NiAxNzUuMTk5NjA4LDI4Mi40MDc1MTQgMTc2Ljg3MjA4NCwyODguNzU4NDYxIEMxNzguNTk4MDc4LDI5NS4wMDIzNjkgMTgyLjYzNDMxOSwzMDAuNjQ4NjQ3IDE4OC42Njg2MSwzMDQuMTc2NDU1IEwxODguNzA4NzUsMzA0LjE3NjQ1NSBDMTk0Ljc1NjQyMSwzMDcuNjUwNzQ0IDIwMS42MDY4OCwzMDguMjc5NTk1IDIwNy45NTMzNjcsMzA2LjYzMzg3OSBaIE05NS45Njg4NzEyLDE4MC4zODY1MTIgQzg5LjMxNDY0ODksMTczLjc1MDEyOSA4MC4xNDUwMjM1LDE2OS41OTM0NyA2OS45ODA4MzI3LDE2OS41OTM0NyBDNTkuODU2NzgxMywxNjkuNTkzNDcgNTAuNzA5NDU1NiwxNzMuNzUwMTI5IDQ0LjA2ODYxMzEsMTgwLjM4NjUxMiBDMzcuNDU4OTkwMSwxODcuMDAwNTk1IDMzLjM4MjYxLDE5Ni4xNDc5MjEgMzMuMzgyNjEsMjA2LjI4NTM1MiBDMzMuMzgyNjEsMjE2LjQ0OTU0MyAzNy40NTg5OTAxLDIyNS42MjM2MjggNDQuMDY4NjEzMSwyMzIuMzEzNTMgQzUwLjcwOTQ1NTYsMjM4Ljg5NjM5MyA1OS44NTY3ODEzLDI0My4wMjYyOTIgNjkuOTgwODMyNywyNDMuMDI2MjkyIEM4MC4xNDUwMjM1LDI0My4wMjYyOTIgODkuMzE0NjQ4OSwyMzguODk2MzkzIDk1Ljk2ODg3MTIsMjMyLjMxMzUzIEMxMDIuNTkxODc0LDIyNS42MjM2MjggMTA2LjY2ODI1NCwyMTYuNDQ5NTQzIDEwNi42NjgyNTQsMjA2LjI4NTM1MiBDMTA2LjY2ODI1NCwxOTYuMTQ3OTIxIDEwMi41OTE4NzQsMTg3LjAwMDU5NSA5NS45Njg4NzEyLDE4MC4zODY1MTIgWiBNODEuMzU4MTI1NywxMzcuMjIzMjY2IEM5Ni4wODQ4Mjk1LDEzOS42NDk0NyAxMDkuMzM1Mjk1LDE0Ni43MDUwODYgMTE5LjQ0NTk2NywxNTYuODk2MDM3IEwxMTkuNTI2MjQ1LDE1Ni44OTYwMzcgQzEyMS4xMzE4MjIsMTU4LjUxNDk5MyAxMjIuNzAxNzE5LDE2MC4yNjc3NDcgMTI0LjE1MTE5OCwxNjIuMDQyODAxIEwxNDkuNDM0NTY2LDE0Ny40MTQyMTYgQzE0Ni4wMzYwOTYsMTM3LjE0Mjk4NyAxNDUuODc5OTk5LDEyNi40MDM0NjQgMTQ4LjYwOTQ3OCwxMTYuMzQxODUyIEMxNTIuMjE3NTY1LDEwMi44NTUwMSAxNjAuOTU5MDM3LDkwLjc4MTk2NzQgMTc0LjA2MjMyNSw4My4yMDQ1Mzg2IEwxNzQuNDk0OTM4LDgyLjk0NTg2MjQgQzE4Ny40NTU1MDgsNzUuNjAwMzUwMiAyMDIuMTkxMTMyLDc0LjA4Mzk3MjUgMjE1LjQ5NTExNyw3Ny42OTIwNTk1IEMyMjguOTY0MTE5LDgxLjI5NTY4NjYgMjQxLjExNzQ0LDkwLjA3NzI5NzcgMjQ4LjY4MTQ4OSwxMDMuMTcxNjY1IEwyNDguNjgxNDg5LDEwMy4xOTg0MjUgQzI1Ni4yMDk4NTksMTE2LjIxMjUxNCAyNTcuNzM5NjE2LDEzMS4xNTc3NTUgMjU0LjE0NDkwOSwxNDQuNTkxMDc3IEMyNTAuNTYzNTgyLDE1OC4wNjkgMjQxLjc4MTk3MSwxNzAuMjIyMzIxIDIyOC42OTIwNjMsMTc3Ljc0NjIzMSBMMjI1LjI0MDA3NCwxNzkuNzg4ODgxIEwyMjQuODg3NzM5LDE3OS43ODg4ODEgQzIxMi43NzkwMTYsMTg1LjU2MDAzNiAxOTkuNDYxNjUyLDE4Ni40NTIwMjMgMTg3LjIzMjUxMSwxODMuMjM2NDEgQzE3Ny4xODg3MzksMTgwLjU2OTM2OSAxNjcuOTc0NTE0LDE3NC45NzY2MTEgMTYwLjc2MjgsMTY3LjAwNjcwOCBMMTM1LjUxOTU3MSwxODEuNTkwNjk0IEMxMzguNDE4NTI4LDE4OS4yNzA3MDIgMTQwLjAyODU2NCwxOTcuNTU3MjYgMTQwLjAyODU2NCwyMDYuMjg1MzUyIEMxNDAuMDI4NTY0LDIxNC45ODY2ODQgMTM4LjQxODUyOCwyMjMuMzc1ODIxIDEzNS41MTk1NzEsMjMxLjEwOTM0NyBMMTYwLjc2MjgsMjQ1LjYzOTgxNCBDMTY3Ljk3NDUxNCwyMzcuNTY3MzMzIDE3Ny4xODg3MzksMjMyLjA3NzE1MyAxODcuMjMyNTExLDIyOS40MTAxMTIgQzIwMC43MDE1MTQsMjI1LjcyNjIwNiAyMTUuNjM3ODM1LDIyNy4yOTYxMDMgMjI4LjY5MjA2MywyMzQuOTAwMjkyIEwyMjkuNTI2MDcxLDIzNS4yOTI3NjYgTDIyOS41MjYwNzEsMjM1LjM0NjI4NSBDMjQyLjEzODc2NSwyNDIuOTcyNzczIDI1MC42MDM3MjEsMjU0Ljc4NzE0IDI1NC4xNDQ5MDksMjY4LjExMzQyNCBDMjU3LjczOTYxNiwyODEuNDY2NDY4IDI1Ni4yMDk4NTksMjk2LjQxNjE2OSAyNDguNjgxNDg5LDMwOS40NTcwMTcgTDI0OC4yMjY1NzYsMzEwLjM3MTMwNCBMMjQ4LjE3MzA1NywzMTAuMjkxMDI1IEMyNDAuNjA5MDA4LDMyMi44NjM1OCAyMjguNjkyMDYzLDMzMS4zODIwNTUgMjE1LjUzNTI1NiwzMzQuOTg1NjgzIEMyMDIuMDM1MDM0LDMzOC41NDAyNSAxODcuMTAzMTczLDMzNy4wMjM4NzMgMTc0LjA2MjMyNSwzMjkuNTI2NzIzIEwxNzQuMDYyMzI1LDMyOS40MTk2ODQgQzE2MC45NTkwMzcsMzIxLjg0MjI1NSAxNTIuMjE3NTY1LDMwOS43NDI0NTMgMTQ4LjYwOTQ3OCwyOTYuMjg2ODMxIEMxNDUuODc5OTk5LDI4Ni4yNTE5NzggMTQ2LjAzNjA5NiwyNzUuNTA3OTk2IDE0OS40MzQ1NjYsMjY1LjI0MTIyNiBMMTI0LjE1MTE5OCwyNTAuNjU3MjQgQzEyMi43MDE3MTksMjUyLjQzNjc1NCAxMjEuMTMxODIyLDI1NC4xMDkyMyAxMTkuNTI2MjQ1LDI1NS43MjgxODYgTDExOS40NDU5NjcsMjU1LjgwNDAwNSBDMTA5LjMzNTI5NSwyNjUuOTQ1ODk2IDk2LjA4NDgyOTUsMjczLjAwMTUxMiA4MS4zNTgxMjU3LDI3NS4zNTE4OTggTDgxLjM1ODEyNTcsMzA0LjU2ODkyOSBDOTEuODUyMzUxNiwzMDYuNzYzMjE3IDEwMS4yNTgzNTQsMzEyLjAxNzAyIDEwOC42MzA2MjUsMzE5LjM4NDgzMiBMMTA4LjY2NjMwNSwzMTkuNDY1MTEgQzExOC41NDUwNiwzMjkuMjkwMzQ2IDEyNC42NTk2MywzNDIuOTgyMzQ1IDEyNC42NTk2MywzNTguMDM0NjI0IEMxMjQuNjU5NjMsMzczLjAzNzg0NCAxMTguNTQ1MDYsMzg2LjY0NTEwNCAxMDguNjY2MzA1LDM5Ni41MjM4NTkgTDEwOC42MzA2MjUsMzk2LjY3OTk1NyBDOTguNjg0OTcxMyw0MDYuNTU4NzEyIDg1LjAzMzExMTcsNDEyLjY3MzI4MiA2OS45ODA4MzI3LDQxMi42NzMyODIgQzU1LjAwODgzMjUsNDEyLjY3MzI4MiA0MS4zMzkxMzMyLDQwNi41NTg3MTIgMzEuNDIwMjM4OCwzOTYuNjc5OTU3IEwzMS4zODQ1NTkzLDM5Ni42Nzk5NTcgTDMxLjM4NDU1OTMsMzk2LjUyMzg1OSBDMjEuNDkyNDI0NSwzODYuNjQ1MTA0IDE1LjM2NDQ3NDUsMzczLjAzNzg0NCAxNS4zNjQ0NzQ1LDM1OC4wMzQ2MjQgQzE1LjM2NDQ3NDUsMzQyLjk4MjM0NSAyMS40OTI0MjQ1LDMyOS4yOTAzNDYgMzEuMzg0NTU5MywzMTkuNDY1MTEgTDMxLjM4NDU1OTMsMzE5LjM4NDgzMiBMMzEuNDIwMjM4OCwzMTkuMzg0ODMyIEMzOC43NzkxMzA3LDMxMi4wMTcwMiA0OC4xOTg1MTI1LDMwNi43NjMyMTcgNTguNjY1OTc4OCwzMDQuNTY4OTI5IEw1OC42NjU5Nzg4LDI3NS4zNTE4OTggQzQzLjkyNTg5NTIsMjczLjAwMTUxMiAzMC43MTU1NjkxLDI2NS45NDU4OTYgMjAuNjE4Mjc3MywyNTUuODA0MDA1IEwyMC41MTEyMzg5LDI1NS43MjgxODYgQzcuODg5NjI0MTgsMjQzLjA1MzA1MiAwLDIyNS42MjM2MjggMCwyMDYuMjg1MzUyIEMwLDE4Ny4wMDA1OTUgNy44ODk2MjQxOCwxNjkuNTcxMTcxIDIwLjUxMTIzODksMTU2Ljg5NjAzNyBMMjAuNjE4Mjc3MywxNTYuODk2MDM3IEMzMC43MTU1NjkxLDE0Ni43MDUwODYgNDMuOTI1ODk1MiwxMzkuNjQ5NDcgNTguNjY1OTc4OCwxMzcuMjIzMjY2IEw1OC42NjU5Nzg4LDEwOC4xMzU1NzMgQzQ4LjE5ODUxMjUsMTA1Ljg2MTAwNiAzOC43NzkxMzA3LDEwMC42MTE2NjMgMzEuNDIwMjM4OCw5My4yOTI5MTA1IEwzMS4zODQ1NTkzLDkzLjI5MjkxMDUgTDMxLjM4NDU1OTMsOTMuMjEyNjMxNyBDMjEuNDkyNDI0NSw4My4yODQ4MTc0IDE1LjM2NDQ3NDUsNjkuNjk1Mzk2OSAxNS4zNjQ0NzQ1LDU0LjY0MzExNzkgQzE1LjM2NDQ3NDUsMzkuNjY2NjU3NyAyMS40OTI0MjQ1LDI1Ljk0Nzg5OTEgMzEuMzg0NTU5MywxNi4wNjkxNDQxIEwzMS40MjAyMzg4LDE2LjAyMDA4NDggQzQxLjMzOTEzMzIsNi4xMTQ1NzAyNCA1NS4wMDg4MzI1LDAgNjkuOTgwODMyNywwIEM4NS4wMzMxMTE3LDAgOTguNjg0OTcxMyw2LjExNDU3MDI0IDEwOC42MzA2MjUsMTYuMDIwMDg0OCBMMTA4LjYzMDYyNSwxNi4wNjkxNDQxIEwxMDguNjY2MzA1LDE2LjA2OTE0NDEgQzExOC41NDUwNiwyNS45NDc4OTkxIDEyNC42NTk2MywzOS42NjY2NTc3IDEyNC42NTk2Myw1NC42NDMxMTc5IEMxMjQuNjU5NjMsNjkuNjk1Mzk2OSAxMTguNTQ1MDYsODMuMjg0ODE3NCAxMDguNjY2MzA1LDkzLjIxMjYzMTcgTDEwOC42MzA2MjUsOTMuMjkyOTEwNSBDMTAxLjI1ODM1NCwxMDAuNjExNjYzIDkxLjg1MjM1MTYsMTA1Ljg2MTAwNiA4MS4zNTgxMjU3LDEwOC4xMzU1NzMgTDgxLjM1ODEyNTcsMTM3LjIyMzI2NiBaIE0yMjMuMzc1ODIxLDExNy44MzE0NyBMMjIzLjE2NjIwNCwxMTcuNTE5Mjc1IEMyMTkuNjc0MDc1LDExMS42MzY2MjEgMjE0LjEwODA3NywxMDcuNzE2MzM5IDIwNy45NTMzNjcsMTA2LjAxNzEwNCBDMjAxLjYwNjg4LDEwNC4zNDQ2MjggMTk0Ljc1NjQyMSwxMDUuMDUzNzU4IDE4OC42Njg2MSwxMDguNTI4MDQ3IEwxODguNzA4NzUsMTA4LjUyODA0NyBDMTgyLjYzNDMxOSwxMTEuOTc1NTc2IDE3OC41NzEzMTksMTE3LjYyMTg1MyAxNzYuODcyMDg0LDEyMy45NDYwNDEgQzE3NS4xOTk2MDgsMTMwLjIxNjcwOCAxNzUuOTMxMDM3LDEzNy4xNDI5ODcgMTc5LjQyMzE2NiwxNDMuMTc3Mjc4IEwxNzkuNTM5MTI0LDE0My4zMzc4MzYgQzE4My4wNDAxNzMsMTQ5LjI5MTg0OCAxODguNjA2MTcxLDE1My4yODc5NSAxOTQuODIzMzIsMTU0LjkwNjkwNiBDMjAxLjA3MTY4OCwxNTYuNjU5NjYgMjA4LjAzMzY0NiwxNTUuOTI4MjMxIDIxNC4wMzIyNTgsMTUyLjQyNzE4MiBMMjE0LjM1NzgzMywxNTIuMjcxMDg1IEMyMjAuMjYyNzg3LDE0OC43NDMyNzYgMjI0LjE5NjQ0OSwxNDMuMTc3Mjc4IDIyNS44NDIxNjUsMTM3LjA2MjcwOCBDMjI3LjUxNDY0LDEzMC43NjUyOCAyMjYuODUwMTEsMTIzLjg2NTc2MiAyMjMuMzc1ODIxLDExNy44MzE0NyBaIj4mI3hhOyYjeGE7PC9wYXRoPiYjeGE7ICAgIDwvZz4mI3hhOzwvc3ZnPg==;rounded=1;sketch=1;hachureGap=4;jiggle=2;curveFitting=1;fontFamily=Architects Daughter;fontSource=https%3A%2F%2Ffonts.googleapis.com%2Fcss%3Ffamily%3DArchitects%2BDaughter;fontSize=20;" parent="Z1wolNKo8hvwdWCRrpzW-35" vertex="1">
          <mxGeometry x="100" y="20" width="12.42" height="20" as="geometry" />
        </mxCell>
        <mxCell id="Z1wolNKo8hvwdWCRrpzW-38" style="edgeStyle=orthogonalEdgeStyle;rounded=1;sketch=1;hachureGap=4;jiggle=2;curveFitting=1;orthogonalLoop=1;jettySize=auto;html=1;entryX=1;entryY=0.5;entryDx=0;entryDy=0;fontFamily=Architects Daughter;fontSource=https%3A%2F%2Ffonts.googleapis.com%2Fcss%3Ffamily%3DArchitects%2BDaughter;fontSize=16;startArrow=classic;startFill=1;" parent="1" source="Z1wolNKo8hvwdWCRrpzW-37" target="Z1wolNKo8hvwdWCRrpzW-32" edge="1">
          <mxGeometry relative="1" as="geometry" />
        </mxCell>
        <mxCell id="Z1wolNKo8hvwdWCRrpzW-37" value="" style="shape=mxgraph.cisco.people.androgenous_person;html=1;pointerEvents=1;dashed=0;fillColor=#036897;strokeColor=#ffffff;strokeWidth=2;verticalLabelPosition=bottom;verticalAlign=top;align=center;outlineConnect=0;rounded=1;sketch=1;hachureGap=4;jiggle=2;curveFitting=1;fontFamily=Architects Daughter;fontSource=https%3A%2F%2Ffonts.googleapis.com%2Fcss%3Ffamily%3DArchitects%2BDaughter;fontSize=20;" parent="1" vertex="1">
          <mxGeometry x="680" y="240" width="80" height="82" as="geometry" />
        </mxCell>
        <mxCell id="Z1wolNKo8hvwdWCRrpzW-39" value="" style="group" parent="1" vertex="1" connectable="0">
          <mxGeometry x="320" y="222" width="100" height="120" as="geometry" />
        </mxCell>
        <mxCell id="Z1wolNKo8hvwdWCRrpzW-3" value="" style="shape=image;verticalLabelPosition=bottom;verticalAlign=top;imageAspect=0;aspect=fixed;image=data:image/svg+xml,PHN2ZyB4bWxucz0iaHR0cDovL3d3dy53My5vcmcvMjAwMC9zdmciIHJvbGU9ImltZyIgdmlld0JveD0iMCAwIDI0IDI0IiBoZWlnaHQ9IjgwMHB4IiB3aWR0aD0iODAwcHgiIGZpbGw9IiMwMDAwMDAiPjx0aXRsZT5TdmVsdGUgaWNvbjwvdGl0bGU+PHBhdGggZD0iTTIwLjY4IDMuMTdhNy4zIDcuMyAwIDAgMC05LjgtMi4xbC01LjYgMy41NmE2LjM2IDYuMzYgMCAwIDAtMi44OSA0LjMgNi42NiA2LjY2IDAgMCAwIC42NyA0LjMzIDYuMTQgNi4xNCAwIDAgMC0uOTUgMi40IDYuODQgNi44NCAwIDAgMCAxLjE2IDUuMTYgNy4zMyA3LjMzIDAgMCAwIDkuOCAyLjEybDUuNi0zLjU2YTYuMzYgNi4zNiAwIDAgMCAyLjg4LTQuMyA2LjY2IDYuNjYgMCAwIDAtLjY3LTQuMzIgNi43OSA2Ljc5IDAgMCAwLS4yLTcuNTl6TTEwLjMyIDIxLjEzYTQuNDMgNC40MyAwIDAgMS00Ljc2LTEuNzdjLS42NS0uOS0uODktMi4wMS0uNy0zLjExbC4xMS0uNTMuMS0uMzMuMy4yYy42Ni41IDEuNC44NiAyLjE5IDEuMWwuMi4wNy0uMDIuMmMtLjAyLjI4LjA2LjU5LjIyLjgzLjMzLjQ3LjkuNyAxLjQ1LjU1LjEyLS4wNC4yNC0uMDguMzQtLjE0bDUuNTgtMy41NmMuMjgtLjE4LjQ2LS40NS41My0uNzcuMDYtLjMzLS4wMi0uNjctLjItLjk0LS4zMy0uNDYtLjktLjY3LTEuNDUtLjUzLS4xMi4wNC0uMjUuMDktLjM1LjE1bC0yLjExIDEuMzRhNC40MyA0LjQzIDAgMCAxLTUuOS0xLjI4IDQuMSA0LjEgMCAwIDEtLjctMy4xMUEzLjg1IDMuODUgMCAwIDEgNi45MiA2LjlsNS41Ny0zLjU2Yy4zNS0uMjIuNzMtLjM4IDEuMTQtLjUgMS44LS40NyAzLjcuMjQgNC43NiAxLjc2YTQuMTIgNC4xMiAwIDAgMSAuNTcgMy42NGwtLjEuMzMtLjI5LS4yYTcuNDIgNy40MiAwIDAgMC0yLjItMS4xbC0uMi0uMDYuMDItLjJjLjAyLS4yOS0uMDYtLjYtLjIyLS44NC0uMzMtLjQ3LS45LS42Ny0xLjQ1LS41My0uMTIuMDQtLjI0LjA4LS4zNC4xNEw4LjU5IDkuMzdjLS4yOC4xOS0uNDYuNDUtLjUyLjc4LS4wNi4zMi4wMi42Ny4yLjkzLjMyLjQ3LjkuNjcgMS40NC41My4xMy0uMDQuMjUtLjA4LjM1LS4xNGwyLjEzLTEuMzZjLjM1LS4yMy43NC0uNCAxLjE0LS41MSAxLjgxLS40NyAzLjcuMjQgNC43NiAxLjc3LjY1LjkuOSAyLjAxLjcyIDMuMWEzLjg1IDMuODUgMCAwIDEtMS43NSAyLjZsLTUuNTggMy41NWE0LjkgNC45IDAgMCAxLTEuMTYuNTF6Ii8+PC9zdmc+;sketch=1;curveFitting=1;jiggle=2;rounded=1;" parent="Z1wolNKo8hvwdWCRrpzW-39" vertex="1">
          <mxGeometry y="20" width="80" height="80" as="geometry" />
        </mxCell>
        <mxCell id="Z1wolNKo8hvwdWCRrpzW-22" value="" style="shape=image;verticalLabelPosition=bottom;verticalAlign=top;imageAspect=0;aspect=fixed;image=data:image/svg+xml,PHN2ZyB4bWxucz0iaHR0cDovL3d3dy53My5vcmcvMjAwMC9zdmciIGZpbGw9Im5vbmUiIHZpZXdCb3g9IjAgMCAxNiAxNiIgaGVpZ2h0PSI4MDBweCIgd2lkdGg9IjgwMHB4Ij4mI3hhOzxwYXRoIGZpbGw9IiMwMDAwMDAiIGQ9Ik0zIDEuNjAwMDFDMi44NjE5MyAxLjYwMDAxIDIuNzUgMS43MTE5MyAyLjc1IDEuODUwMDFWMTEuNDAwM0MyLjc1IDExLjQ4OTYgMi43OTc2OSAxMS41NzIyIDIuODc1MDkgMTEuNjE2OEw3LjczMzgxIDE0LjQxOTRDNy44MDk0MiAxNC40NjMgNy45MDIzMSAxNC40NjQgNy45Nzg4NiAxNC40MjIxTDEzLjEyMDEgMTEuNjA0OEMxMy4yMDAyIDExLjU2MDkgMTMuMjUgMTEuNDc2OSAxMy4yNSAxMS4zODU2VjEuODUwMDFDMTMuMjUgMS43MTE5MyAxMy4xMzgxIDEuNjAwMDEgMTMgMS42MDAwMUgzWk0xLjI1IDEuODUwMDFDMS4yNSAwLjg4MzUwOCAyLjAzMzUgMC4xMDAwMDYgMyAwLjEwMDAwNkgxM0MxMy45NjY1IDAuMTAwMDA2IDE0Ljc1IDAuODgzNTA5IDE0Ljc1IDEuODUwMDFWMTEuMzg1NkMxNC43NSAxMi4wMjQ4IDE0LjQwMTUgMTIuNjEzMSAxMy44NDEgMTIuOTIwM0w4LjY5OTY4IDE1LjczNzVDOC4xNjM4MyAxNi4wMzExIDcuNTEzNjMgMTYuMDI0IDYuOTg0MzQgMTUuNzE4N0wyLjEyNTYyIDEyLjkxNjJDMS41ODM4MiAxMi42MDM3IDEuMjUgMTIuMDI1OCAxLjI1IDExLjQwMDNWMS44NTAwMVpNNSA0LjM1MDAxQzUgMy45MzU3OSA1LjMzNTc5IDMuNjAwMDEgNS43NSAzLjYwMDAxSDEwLjM2NTRDMTAuNzc5NiAzLjYwMDAxIDExLjExNTQgMy45MzU3OSAxMS4xMTU0IDQuMzUwMDFWMTAuNDQ2MkMxMS4xMTU0IDEwLjczMDIgMTAuOTU0OSAxMC45ODk5IDEwLjcwMDggMTEuMTE3TDguMzkzMSAxMi4yNzA4QzguMTgxOTYgMTIuMzc2NCA3LjkzMzQzIDEyLjM3NjQgNy43MjIyOCAxMi4yNzA4TDUuNDE0NTkgMTEuMTE3QzUuMTYwNSAxMC45ODk5IDUgMTAuNzMwMiA1IDEwLjQ0NjJWOS44NjkyNEM1IDkuNDU1MDIgNS4zMzU3OSA5LjExOTI0IDUuNzUgOS4xMTkyNEM2LjE2NDIxIDkuMTE5MjQgNi41IDkuNDU1MDIgNi41IDkuODY5MjRWOS45ODI2M0w4LjA1NzY5IDEwLjc2MTVMOS42MTUzOSA5Ljk4MjYzVjguMzExNTRIN0M2LjU4NTc5IDguMzExNTQgNi4yNSA3Ljk3NTc2IDYuMjUgNy41NjE1NEM2LjI1IDcuMTQ3MzMgNi41ODU3OSA2LjgxMTU0IDcgNi44MTE1NEg5LjYxNTM5VjUuMTAwMDFINS43NUM1LjMzNTc5IDUuMTAwMDEgNSA0Ljc2NDIyIDUgNC4zNTAwMVoiIGNsaXAtcnVsZT0ibm9uemVybyIgZmlsbC1ydWxlPSJub256ZXJvIi8+JiN4YTs8L3N2Zz4=;rounded=1;sketch=1;hachureGap=4;jiggle=2;curveFitting=1;fontFamily=Architects Daughter;fontSource=https%3A%2F%2Ffonts.googleapis.com%2Fcss%3Ffamily%3DArchitects%2BDaughter;fontSize=20;" parent="Z1wolNKo8hvwdWCRrpzW-39" vertex="1">
          <mxGeometry x="80" y="20" width="20" height="20" as="geometry" />
        </mxCell>
        <mxCell id="Z1wolNKo8hvwdWCRrpzW-23" value="" style="shape=image;verticalLabelPosition=bottom;verticalAlign=top;imageAspect=0;aspect=fixed;image=data:image/svg+xml,PHN2ZyB4bWxucz0iaHR0cDovL3d3dy53My5vcmcvMjAwMC9zdmciIGZpbGw9Im5vbmUiIHZpZXdCb3g9IjAgMCAxNiAxNiIgaGVpZ2h0PSI4MDBweCIgd2lkdGg9IjgwMHB4Ij4mI3hhOzxwYXRoIGZpbGw9IiMwMDAwMDAiIGQ9Ik0zIDEuNUMyLjg2MTkzIDEuNSAyLjc1IDEuNjExOTMgMi43NSAxLjc1VjExLjMwMDNDMi43NSAxMS4zODk2IDIuNzk3NjkgMTEuNDcyMiAyLjg3NTA5IDExLjUxNjhMNy43MzM4MSAxNC4zMTk0QzcuODA5NDIgMTQuMzYzIDcuOTAyMzEgMTQuMzY0IDcuOTc4ODYgMTQuMzIyMUwxMy4xMjAxIDExLjUwNDhDMTMuMjAwMiAxMS40NjA5IDEzLjI1IDExLjM3NjkgMTMuMjUgMTEuMjg1NlYxLjc1QzEzLjI1IDEuNjExOTMgMTMuMTM4MSAxLjUgMTMgMS41SDNaTTEuMjUgMS43NUMxLjI1IDAuNzgzNTAyIDIuMDMzNSAwIDMgMEgxM0MxMy45NjY1IDAgMTQuNzUgMC43ODM1MDMgMTQuNzUgMS43NVYxMS4yODU2QzE0Ljc1IDExLjkyNDggMTQuNDAxNSAxMi41MTMxIDEzLjg0MSAxMi44MjAzTDguNjk5NjggMTUuNjM3NUM4LjE2MzgzIDE1LjkzMTEgNy41MTM2MyAxNS45MjQgNi45ODQzNCAxNS42MTg3TDIuMTI1NjIgMTIuODE2MkMxLjU4MzgyIDEyLjUwMzcgMS4yNSAxMS45MjU4IDEuMjUgMTEuMzAwM1YxLjc1Wk01IDQuMjVDNSAzLjgzNTc5IDUuMzM1NzkgMy41IDUuNzUgMy41SDEwLjM2NTRDMTAuNzc5NiAzLjUgMTEuMTE1NCAzLjgzNTc5IDExLjExNTQgNC4yNUMxMS4xMTU0IDQuNjY0MjEgMTAuNzc5NiA1IDEwLjM2NTQgNUg2LjVWNi43MTE1NEgxMC4zNjU0QzEwLjc3OTYgNi43MTE1NCAxMS4xMTU0IDcuMDQ3MzIgMTEuMTE1NCA3LjQ2MTU0VjEwLjM0NjJDMTEuMTE1NCAxMC42MzAyIDEwLjk1NDkgMTAuODg5OSAxMC43MDA4IDExLjAxN0w4LjM5MzEgMTIuMTcwOEM4LjE4MTk2IDEyLjI3NjQgNy45MzM0MyAxMi4yNzY0IDcuNzIyMjggMTIuMTcwOEw1LjQxNDU5IDExLjAxN0M1LjE2MDUgMTAuODg5OSA1IDEwLjYzMDIgNSAxMC4zNDYyVjkuNzY5MjNDNSA5LjM1NTAyIDUuMzM1NzkgOS4wMTkyMyA1Ljc1IDkuMDE5MjNDNi4xNjQyMSA5LjAxOTIzIDYuNSA5LjM1NTAyIDYuNSA5Ljc2OTIzVjkuODgyNjNMOC4wNTc2OSAxMC42NjE1TDkuNjE1MzkgOS44ODI2M1Y4LjIxMTU0SDUuNzVDNS4zMzU3OSA4LjIxMTU0IDUgNy44NzU3NSA1IDcuNDYxNTRWNC4yNVoiIGNsaXAtcnVsZT0ibm9uemVybyIgZmlsbC1ydWxlPSJub256ZXJvIi8+JiN4YTs8L3N2Zz4=;rounded=1;sketch=1;hachureGap=4;jiggle=2;curveFitting=1;fontFamily=Architects Daughter;fontSource=https%3A%2F%2Ffonts.googleapis.com%2Fcss%3Ffamily%3DArchitects%2BDaughter;fontSize=20;" parent="Z1wolNKo8hvwdWCRrpzW-39" vertex="1">
          <mxGeometry x="60" width="20" height="20" as="geometry" />
        </mxCell>
        <mxCell id="Z1wolNKo8hvwdWCRrpzW-24" value="" style="shape=image;verticalLabelPosition=bottom;verticalAlign=top;imageAspect=0;aspect=fixed;image=data:image/svg+xml,PHN2ZyB4bWxucz0iaHR0cDovL3d3dy53My5vcmcvMjAwMC9zdmciIGZpbGw9Im5vbmUiIHZpZXdCb3g9IjAgMCAxNiAxNiIgaGVpZ2h0PSI4MDBweCIgd2lkdGg9IjgwMHB4Ij4mI3hhOzxwYXRoIGZpbGw9IiMwMDAwMDAiIGQ9Ik0wIDEuNzVDMCAwLjc4MzUwMSAwLjc4MzUwMiAwIDEuNzUgMEgxNC4yNUMxNS4yMTY1IDAgMTYgMC43ODM1MDIgMTYgMS43NVYzLjc1QzE2IDQuMTY0MjEgMTUuNjY0MiA0LjUgMTUuMjUgNC41QzE0LjgzNTggNC41IDE0LjUgNC4xNjQyMSAxNC41IDMuNzVWMS43NUMxNC41IDEuNjExOTMgMTQuMzg4MSAxLjUgMTQuMjUgMS41SDEuNzVDMS42MTE5MyAxLjUgMS41IDEuNjExOTMgMS41IDEuNzVWMTQuMjVDMS41IDE0LjM4ODEgMS42MTE5MyAxNC41IDEuNzUgMTQuNUgxNS4yNUMxNS42NjQyIDE0LjUgMTYgMTQuODM1OCAxNiAxNS4yNUMxNiAxNS42NjQyIDE1LjY2NDIgMTYgMTUuMjUgMTZIMS43NUMwLjc4MzUwMSAxNiAwIDE1LjIxNjUgMCAxNC4yNVYxLjc1Wk00Ljc1IDYuNUM0Ljc1IDYuMDg1NzkgNS4wODU3OSA1Ljc1IDUuNSA1Ljc1SDkuMjVDOS42NjQyMSA1Ljc1IDEwIDYuMDg1NzkgMTAgNi41QzEwIDYuOTE0MjEgOS42NjQyMSA3LjI1IDkuMjUgNy4yNUg4LjI1VjEyLjVDOC4yNSAxMi45MTQyIDcuOTE0MjEgMTMuMjUgNy41IDEzLjI1QzcuMDg1NzkgMTMuMjUgNi43NSAxMi45MTQyIDYuNzUgMTIuNVY3LjI1SDUuNUM1LjA4NTc5IDcuMjUgNC43NSA2LjkxNDIxIDQuNzUgNi41Wk0xMS4yNzU3IDYuNTgwMTFDMTEuNjk0NCA2LjA4MTY0IDEyLjM1MDcgNS43NSAxMy4yNSA1Ljc1QzE0LjA4NDkgNS43NSAxNC43MTQ4IDYuMDM1NjcgMTUuMTM5NCA2LjQ4NDgxQzE1LjQyMzkgNi43ODU4MyAxNS40MTA1IDcuMjYwNTIgMTUuMTA5NSA3LjU0NTA1QzE0LjgwODUgNy44Mjk1OCAxNC4zMzM4IDcuODE2MjEgMTQuMDQ5MyA3LjUxNTE5QzEzLjkzOTQgNy4zOTg5OCAxMy43MjA0IDcuMjUgMTMuMjUgNy4yNUMxMi43NDkzIDcuMjUgMTIuNTMwNiA3LjQxODM2IDEyLjQyNDMgNy41NDQ4OUMxMi4yOTM0IDcuNzAwNjUgMTIuMjUgNy44OTYgMTIuMjUgOEMxMi4yNSA4LjEwNCAxMi4yOTM0IDguMjk5MzUgMTIuNDI0MyA4LjQ1NTExQzEyLjUzMDYgOC41ODE2NCAxMi43NDkzIDguNzUgMTMuMjUgOC43NUMxMy4zMjU3IDguNzUgMTMuMzk4OCA4Ljc2MTIxIDEzLjQ2NzYgOC43ODIwN0MxNC4xMzA3IDguODc2NDYgMTQuNjMxOSA5LjE3MjUxIDE0Ljk3NDMgOS41ODAxMUMxNS4zNjg0IDEwLjA0OTMgMTUuNSAxMC42MDQgMTUuNSAxMUMxNS41IDExLjM5NiAxNS4zNjg0IDExLjk1MDcgMTQuOTc0MyAxMi40MTk5QzE0LjU1NTYgMTIuOTE4NCAxMy44OTkzIDEzLjI1IDEzIDEzLjI1QzEyLjE2NTEgMTMuMjUgMTEuNTM1MiAxMi45NjQzIDExLjExMDYgMTIuNTE1MkMxMC44MjYxIDEyLjIxNDIgMTAuODM5NSAxMS43Mzk1IDExLjE0MDUgMTEuNDU0OUMxMS40NDE1IDExLjE3MDQgMTEuOTE2MiAxMS4xODM4IDEyLjIwMDcgMTEuNDg0OEMxMi4zMTA2IDExLjYwMSAxMi41Mjk2IDExLjc1IDEzIDExLjc1QzEzLjUwMDcgMTEuNzUgMTMuNzE5NCAxMS41ODE2IDEzLjgyNTcgMTEuNDU1MUMxMy45NTY2IDExLjI5OTMgMTQgMTEuMTA0IDE0IDExQzE0IDEwLjg5NiAxMy45NTY2IDEwLjcwMDcgMTMuODI1NyAxMC41NDQ5QzEzLjcxOTQgMTAuNDE4NCAxMy41MDA3IDEwLjI1IDEzIDEwLjI1QzEyLjkyNDMgMTAuMjUgMTIuODUxMiAxMC4yMzg4IDEyLjc4MjQgMTAuMjE3OUMxMi4xMTkzIDEwLjEyMzUgMTEuNjE4MSA5LjgyNzQ5IDExLjI3NTcgOS40MTk4OUMxMC44ODE2IDguOTUwNjUgMTAuNzUgOC4zOTYgMTAuNzUgOEMxMC43NSA3LjYwNCAxMC44ODE2IDcuMDQ5MzUgMTEuMjc1NyA2LjU4MDExWiIgY2xpcC1ydWxlPSJub256ZXJvIiBmaWxsLXJ1bGU9Im5vbnplcm8iLz4mI3hhOzwvc3ZnPg==;rounded=1;sketch=1;hachureGap=4;jiggle=2;curveFitting=1;fontFamily=Architects Daughter;fontSource=https%3A%2F%2Ffonts.googleapis.com%2Fcss%3Ffamily%3DArchitects%2BDaughter;fontSize=20;" parent="Z1wolNKo8hvwdWCRrpzW-39" vertex="1">
          <mxGeometry x="80" y="80" width="20" height="20" as="geometry" />
        </mxCell>
        <mxCell id="Z1wolNKo8hvwdWCRrpzW-25" value="" style="shape=image;verticalLabelPosition=bottom;verticalAlign=top;imageAspect=0;aspect=fixed;image=data:image/svg+xml,PHN2ZyB4bWxucz0iaHR0cDovL3d3dy53My5vcmcvMjAwMC9zdmciIGZpbGw9Im5vbmUiIHZpZXdCb3g9IjAgMCAxNiAxNiIgaGVpZ2h0PSI4MDBweCIgd2lkdGg9IjgwMHB4Ij4mI3hhOzxwYXRoIGZpbGw9IiMwMDAwMDAiIGQ9Ik0wIDEuNzVDMCAwLjc4MzUwMSAwLjc4MzUwMiAwIDEuNzUgMEgxNC4yNUMxNS4yMTY1IDAgMTYgMC43ODM1MDIgMTYgMS43NVYzLjc1QzE2IDQuMTY0MjEgMTUuNjY0MiA0LjUgMTUuMjUgNC41QzE0LjgzNTggNC41IDE0LjUgNC4xNjQyMSAxNC41IDMuNzVWMS43NUMxNC41IDEuNjExOTMgMTQuMzg4MSAxLjUgMTQuMjUgMS41SDEuNzVDMS42MTE5MyAxLjUgMS41IDEuNjExOTMgMS41IDEuNzVWMTQuMjVDMS41IDE0LjM4ODEgMS42MTE5MyAxNC41IDEuNzUgMTQuNUgxNS4yNUMxNS42NjQyIDE0LjUgMTYgMTQuODM1OCAxNiAxNS4yNUMxNiAxNS42NjQyIDE1LjY2NDIgMTYgMTUuMjUgMTZIMS43NUMwLjc4MzUwMSAxNiAwIDE1LjIxNjUgMCAxNC4yNVYxLjc1Wk04LjI1IDUuNzVDOC42NjQyMSA1Ljc1IDkgNi4wODU3OSA5IDYuNVYxMC41QzkgMTEuNTA0OCA4LjcyMzk5IDEyLjI1ODQgOC4xNTUxNCAxMi43MzI0QzcuNjEyMjMgMTMuMTg0OCA2Ljk1Mzg0IDEzLjI1IDYuNSAxMy4yNUM2LjA4NTc5IDEzLjI1IDUuNzUgMTIuOTE0MiA1Ljc1IDEyLjVDNS43NSAxMi4wODU4IDYuMDg1NzkgMTEuNzUgNi41IDExLjc1QzYuODQ2MTcgMTEuNzUgNy4wNjI3NyAxMS42OTAyIDcuMTk0ODYgMTEuNTgwMUM3LjMwMSAxMS40OTE2IDcuNSAxMS4yNDUyIDcuNSAxMC41VjYuNUM3LjUgNi4wODU3OSA3LjgzNTc4IDUuNzUgOC4yNSA1Ljc1Wk0xMS4yNzU3IDYuNTgwMTFDMTEuNjk0NCA2LjA4MTY0IDEyLjM1MDcgNS43NSAxMy4yNSA1Ljc1QzE0LjA4NDkgNS43NSAxNC43MTQ4IDYuMDM1NjcgMTUuMTM5NCA2LjQ4NDgxQzE1LjQyMzkgNi43ODU4MyAxNS40MTA1IDcuMjYwNTIgMTUuMTA5NSA3LjU0NTA1QzE0LjgwODUgNy44Mjk1OCAxNC4zMzM4IDcuODE2MjEgMTQuMDQ5MyA3LjUxNTE5QzEzLjkzOTQgNy4zOTg5OCAxMy43MjA0IDcuMjUgMTMuMjUgNy4yNUMxMi43NDkzIDcuMjUgMTIuNTMwNiA3LjQxODM2IDEyLjQyNDMgNy41NDQ4OUMxMi4yOTM0IDcuNzAwNjUgMTIuMjUgNy44OTYgMTIuMjUgOEMxMi4yNSA4LjEwNCAxMi4yOTM0IDguMjk5MzUgMTIuNDI0MyA4LjQ1NTExQzEyLjUzMDYgOC41ODE2NCAxMi43NDkzIDguNzUgMTMuMjUgOC43NUMxMy4zMjU3IDguNzUgMTMuMzk4OCA4Ljc2MTIxIDEzLjQ2NzYgOC43ODIwN0MxNC4xMzA3IDguODc2NDYgMTQuNjMxOSA5LjE3MjUxIDE0Ljk3NDMgOS41ODAxMUMxNS4zNjg0IDEwLjA0OTMgMTUuNSAxMC42MDQgMTUuNSAxMUMxNS41IDExLjM5NiAxNS4zNjg0IDExLjk1MDcgMTQuOTc0MyAxMi40MTk5QzE0LjU1NTYgMTIuOTE4NCAxMy44OTkzIDEzLjI1IDEzIDEzLjI1QzEyLjE2NTEgMTMuMjUgMTEuNTM1MiAxMi45NjQzIDExLjExMDYgMTIuNTE1MkMxMC44MjYxIDEyLjIxNDIgMTAuODM5NSAxMS43Mzk1IDExLjE0MDUgMTEuNDU0OUMxMS40NDE1IDExLjE3MDQgMTEuOTE2MiAxMS4xODM4IDEyLjIwMDcgMTEuNDg0OEMxMi4zMTA2IDExLjYwMSAxMi41Mjk2IDExLjc1IDEzIDExLjc1QzEzLjUwMDcgMTEuNzUgMTMuNzE5NCAxMS41ODE2IDEzLjgyNTcgMTEuNDU1MUMxMy45NTY2IDExLjI5OTMgMTQgMTEuMTA0IDE0IDExQzE0IDEwLjg5NiAxMy45NTY2IDEwLjcwMDcgMTMuODI1NyAxMC41NDQ5QzEzLjcxOTQgMTAuNDE4NCAxMy41MDA3IDEwLjI1IDEzIDEwLjI1QzEyLjkyNDMgMTAuMjUgMTIuODUxMiAxMC4yMzg4IDEyLjc4MjQgMTAuMjE3OUMxMi4xMTkzIDEwLjEyMzUgMTEuNjE4MSA5LjgyNzQ5IDExLjI3NTcgOS40MTk4OUMxMC44ODE2IDguOTUwNjUgMTAuNzUgOC4zOTYgMTAuNzUgOEMxMC43NSA3LjYwNCAxMC44ODE2IDcuMDQ5MzUgMTEuMjc1NyA2LjU4MDExWiIgY2xpcC1ydWxlPSJub256ZXJvIiBmaWxsLXJ1bGU9Im5vbnplcm8iLz4mI3hhOzwvc3ZnPg==;rounded=1;sketch=1;hachureGap=4;jiggle=2;curveFitting=1;fontFamily=Architects Daughter;fontSource=https%3A%2F%2Ffonts.googleapis.com%2Fcss%3Ffamily%3DArchitects%2BDaughter;fontSize=20;" parent="Z1wolNKo8hvwdWCRrpzW-39" vertex="1">
          <mxGeometry x="60" y="100" width="20" height="20" as="geometry" />
        </mxCell>
        <mxCell id="Z1wolNKo8hvwdWCRrpzW-40" value="" style="group" parent="1" vertex="1" connectable="0">
          <mxGeometry x="300" y="40" width="100" height="100" as="geometry" />
        </mxCell>
        <mxCell id="Z1wolNKo8hvwdWCRrpzW-18" value="" style="shape=image;verticalLabelPosition=bottom;verticalAlign=top;imageAspect=0;aspect=fixed;image=data:image/svg+xml,PHN2ZyB4bWxucz0iaHR0cDovL3d3dy53My5vcmcvMjAwMC9zdmciIGZpbGw9Im5vbmUiIHZpZXdCb3g9IjAgMCAyNCAyNCIgaGVpZ2h0PSI4MDBweCIgd2lkdGg9IjgwMHB4Ij4mI3hhOzxwYXRoIHN0cm9rZS1saW5lam9pbj0icm91bmQiIHN0cm9rZS1saW5lY2FwPSJyb3VuZCIgc3Ryb2tlLXdpZHRoPSIyIiBzdHJva2U9IiMwMDAwMDAiIGQ9Ik03IDEwLjA3MzdDNy40NzE0MiAxMC4wNDQ5IDguMDUyNTkgMTAgOC44IDEwSDE1LjJDMTUuOTQ3NCAxMCAxNi41Mjg2IDEwLjA0NDkgMTcgMTAuMDczN003IDEwLjA3MzdDNi40MTE2OCAxMC4xMDk2IDUuOTk0MjkgMTAuMTkwNCA1LjYzODAzIDEwLjM3MTlDNS4wNzM1NCAxMC42NTk1IDQuNjE0NiAxMS4xMTg1IDQuMzI2OTggMTEuNjgzQzQgMTIuMzI0NyA0IDEzLjE2NDggNCAxNC44NDQ5VjE2LjI0NDlDNCAxNy45MjUxIDQgMTguNzY1MiA0LjMyNjk4IDE5LjQwNjlDNC42MTQ2IDE5Ljk3MTQgNS4wNzM1NCAyMC40MzAzIDUuNjM4MDMgMjAuNzE3OUM2LjI3OTc2IDIxLjA0NDkgNy4xMTk4NCAyMS4wNDQ5IDguOCAyMS4wNDQ5SDE1LjJDMTYuODgwMiAyMS4wNDQ5IDE3LjcyMDIgMjEuMDQ0OSAxOC4zNjIgMjAuNzE3OUMxOC45MjY1IDIwLjQzMDMgMTkuMzg1NCAxOS45NzE0IDE5LjY3MyAxOS40MDY5QzIwIDE4Ljc2NTIgMjAgMTcuOTI1MSAyMCAxNi4yNDQ5VjE0Ljg0NDlDMjAgMTMuMTY0OCAyMCAxMi4zMjQ3IDE5LjY3MyAxMS42ODNDMTkuMzg1NCAxMS4xMTg1IDE4LjkyNjUgMTAuNjU5NSAxOC4zNjIgMTAuMzcxOUMxOC4wMDU3IDEwLjE5MDQgMTcuNTg4MyAxMC4xMDk2IDE3IDEwLjA3MzdNNyAxMC4wNzM3VjguMDQ0OTJDNyA1LjI4MzUgOS4yMzg1OCAzLjA0NDkyIDEyIDMuMDQ0OTJDMTQuNzYxNCAzLjA0NDkyIDE3IDUuMjgzNSAxNyA4LjA0NDkyVjEwLjA3MzdNMTAgMThMMTAuMjg1NyAxN00xNCAxOEwxMy43MTQzIDE3TTEwLjI4NTcgMTdMMTAuODMwOCAxNS4wOTIyQzExLjE3OTkgMTMuODcwMiAxMS4zNTQ1IDEzLjI1OTIgMTEuNjI0NCAxMy4xMDU4QzExLjg1NzMgMTIuOTczMyAxMi4xNDI3IDEyLjk3MzMgMTIuMzc1NiAxMy4xMDU4QzEyLjY0NTUgMTMuMjU5MiAxMi44MjAxIDEzLjg3MDIgMTMuMTY5MiAxNS4wOTIyTDEzLjcxNDMgMTdNMTAuMjg1NyAxN0gxMy43MTQzIi8+JiN4YTs8L3N2Zz4=;rounded=1;sketch=1;hachureGap=4;jiggle=2;curveFitting=1;fontFamily=Architects Daughter;fontSource=https%3A%2F%2Ffonts.googleapis.com%2Fcss%3Ffamily%3DArchitects%2BDaughter;fontSize=20;" parent="Z1wolNKo8hvwdWCRrpzW-40" vertex="1">
          <mxGeometry x="20" width="80" height="80" as="geometry" />
        </mxCell>
        <mxCell id="Z1wolNKo8hvwdWCRrpzW-19" value="" style="shape=image;verticalLabelPosition=bottom;verticalAlign=top;imageAspect=0;aspect=fixed;image=data:image/svg+xml,PHN2ZyB4bWxucz0iaHR0cDovL3d3dy53My5vcmcvMjAwMC9zdmciIGlkPSJGbGF0IiB2aWV3Qm94PSIwIDAgMjU2IDI1NiIgaGVpZ2h0PSI4MDBweCIgd2lkdGg9IjgwMHB4IiBmaWxsPSIjMDAwMDAwIj4mI3hhOyAgPHBhdGggZD0iTTIxMiwyOEg0NEExNi4wMTgxNywxNi4wMTgxNywwLDAsMCwyOCw0NFYyMTJhMTYuMDE4MzMsMTYuMDE4MzMsMCwwLDAsMTYsMTZIMjEyYTE2LjAxODMzLDE2LjAxODMzLDAsMCwwLDE2LTE2VjQ0QTE2LjAxODE3LDE2LjAxODE3LDAsMCwwLDIxMiwyOFpNOTYsMTc2LjAwMWE4LDgsMCwxLDEtMTYsMHYtNjRhOCw4LDAsMCwxLDE2LDBaTTg4LDkyYTEyLDEyLDAsMSwxLDEyLTEyQTEyLDEyLDAsMCwxLDg4LDkyWm05Niw4NC4wMDFhOCw4LDAsMSwxLTE2LDB2LTM2YTIwLDIwLDAsMCwwLTQwLDB2MzZhOCw4LDAsMSwxLTE2LDB2LTY0YTcuOTk3MjksNy45OTcyOSwwLDAsMSwxNS43OTQ5Mi0xLjc3ODU3QTM1Ljk4MTI1LDM1Ljk4MTI1LDAsMCwxLDE4NCwxNDAuMDAxWiIvPiYjeGE7PC9zdmc+;rounded=1;sketch=1;hachureGap=4;jiggle=2;curveFitting=1;fontFamily=Architects Daughter;fontSource=https%3A%2F%2Ffonts.googleapis.com%2Fcss%3Ffamily%3DArchitects%2BDaughter;fontSize=20;" parent="Z1wolNKo8hvwdWCRrpzW-40" vertex="1">
          <mxGeometry x="20" y="80" width="20" height="20" as="geometry" />
        </mxCell>
        <mxCell id="Z1wolNKo8hvwdWCRrpzW-20" value="" style="shape=image;verticalLabelPosition=bottom;verticalAlign=top;imageAspect=0;aspect=fixed;image=data:image/svg+xml,PHN2ZyB4bWxuczp4bGluaz0iaHR0cDovL3d3dy53My5vcmcvMTk5OS94bGluayIgeG1sbnM9Imh0dHA6Ly93d3cudzMub3JnLzIwMDAvc3ZnIiB2ZXJzaW9uPSIxLjEiIHZpZXdCb3g9IjAgMCAyMCAyMCIgaGVpZ2h0PSI4MDBweCIgd2lkdGg9IjgwMHB4Ij4mI3hhOyAgICAmI3hhOyAgICA8dGl0bGU+Z2l0aHViIFsjMTQyXTwvdGl0bGU+JiN4YTsgICAgPGRlc2M+Q3JlYXRlZCB3aXRoIFNrZXRjaC48L2Rlc2M+JiN4YTsgICAgPGRlZnM+JiN4YTsmI3hhOzwvZGVmcz4mI3hhOyAgICA8ZyBmaWxsLXJ1bGU9ImV2ZW5vZGQiIGZpbGw9Im5vbmUiIHN0cm9rZS13aWR0aD0iMSIgc3Ryb2tlPSJub25lIiBpZD0iUGFnZS0xIj4mI3hhOyAgICAgICAgPGcgZmlsbD0iIzAwMDAwMCIgdHJhbnNmb3JtPSJ0cmFuc2xhdGUoLTE0MC4wMDAwMDAsIC03NTU5LjAwMDAwMCkiIGlkPSJEcmliYmJsZS1MaWdodC1QcmV2aWV3Ij4mI3hhOyAgICAgICAgICAgIDxnIHRyYW5zZm9ybT0idHJhbnNsYXRlKDU2LjAwMDAwMCwgMTYwLjAwMDAwMCkiIGlkPSJpY29ucyI+JiN4YTsgICAgICAgICAgICAgICAgPHBhdGggaWQ9ImdpdGh1Yi1bIzE0Ml0iIGQ9Ik05NCw3Mzk5IEM5OS41MjMsNzM5OSAxMDQsNzQwMy41OSAxMDQsNzQwOS4yNTMgQzEwNCw3NDEzLjc4MiAxMDEuMTM4LDc0MTcuNjI0IDk3LjE2Nyw3NDE4Ljk4MSBDOTYuNjYsNzQxOS4wODIgOTYuNDgsNzQxOC43NjIgOTYuNDgsNzQxOC40ODkgQzk2LjQ4LDc0MTguMTUxIDk2LjQ5Miw3NDE3LjA0NyA5Ni40OTIsNzQxNS42NzUgQzk2LjQ5Miw3NDE0LjcxOSA5Ni4xNzIsNzQxNC4wOTUgOTUuODEzLDc0MTMuNzc3IEM5OC4wNCw3NDEzLjUyMyAxMDAuMzgsNzQxMi42NTYgMTAwLjM4LDc0MDguNzE4IEMxMDAuMzgsNzQwNy41OTggOTkuOTkyLDc0MDYuNjg0IDk5LjM1LDc0MDUuOTY2IEM5OS40NTQsNzQwNS43MDcgOTkuNzk3LDc0MDQuNjY0IDk5LjI1Miw3NDAzLjI1MiBDOTkuMjUyLDc0MDMuMjUyIDk4LjQxNCw3NDAyLjk3NyA5Ni41MDUsNzQwNC4zMDMgQzk1LjcwNiw3NDA0LjA3NiA5NC44NSw3NDAzLjk2MiA5NCw3NDAzLjk1OCBDOTMuMTUsNzQwMy45NjIgOTIuMjk1LDc0MDQuMDc2IDkxLjQ5Nyw3NDA0LjMwMyBDODkuNTg2LDc0MDIuOTc3IDg4Ljc0Niw3NDAzLjI1MiA4OC43NDYsNzQwMy4yNTIgQzg4LjIwMyw3NDA0LjY2NCA4OC41NDYsNzQwNS43MDcgODguNjQ5LDc0MDUuOTY2IEM4OC4wMSw3NDA2LjY4NCA4Ny42MTksNzQwNy41OTggODcuNjE5LDc0MDguNzE4IEM4Ny42MTksNzQxMi42NDYgODkuOTU0LDc0MTMuNTI2IDkyLjE3NSw3NDEzLjc4NSBDOTEuODg5LDc0MTQuMDQxIDkxLjYzLDc0MTQuNDkzIDkxLjU0LDc0MTUuMTU2IEM5MC45Nyw3NDE1LjQxOCA4OS41MjIsNzQxNS44NzEgODguNjMsNzQxNC4zMDQgQzg4LjYzLDc0MTQuMzA0IDg4LjEwMSw3NDEzLjMxOSA4Ny4wOTcsNzQxMy4yNDcgQzg3LjA5Nyw3NDEzLjI0NyA4Ni4xMjIsNzQxMy4yMzQgODcuMDI5LDc0MTMuODcgQzg3LjAyOSw3NDEzLjg3IDg3LjY4NCw3NDE0LjE4NSA4OC4xMzksNzQxNS4zNyBDODguMTM5LDc0MTUuMzcgODguNzI2LDc0MTcuMiA5MS41MDgsNzQxNi41OCBDOTEuNTEzLDc0MTcuNDM3IDkxLjUyMiw3NDE4LjI0NSA5MS41MjIsNzQxOC40ODkgQzkxLjUyMiw3NDE4Ljc2IDkxLjMzOCw3NDE5LjA3NyA5MC44MzksNzQxOC45ODIgQzg2Ljg2NSw3NDE3LjYyNyA4NCw3NDEzLjc4MyA4NCw3NDA5LjI1MyBDODQsNzQwMy41OSA4OC40NzgsNzM5OSA5NCw3Mzk5Ij4mI3hhOyYjeGE7PC9wYXRoPiYjeGE7ICAgICAgICAgICAgPC9nPiYjeGE7ICAgICAgICA8L2c+JiN4YTsgICAgPC9nPiYjeGE7PC9zdmc+;rounded=1;sketch=1;hachureGap=4;jiggle=2;curveFitting=1;fontFamily=Architects Daughter;fontSource=https%3A%2F%2Ffonts.googleapis.com%2Fcss%3Ffamily%3DArchitects%2BDaughter;fontSize=20;" parent="Z1wolNKo8hvwdWCRrpzW-40" vertex="1">
          <mxGeometry y="60" width="20" height="20" as="geometry" />
        </mxCell>
      </root>
    </mxGraphModel>
  </diagram>
</mxfile>
